<svg height="100%" stroke-miterlimit="10" style="fill-rule:nonzero;clip-rule:evenodd;stroke-linecap:round;stroke-linejoin:round;" version="1.1" viewBox="0 0 4000 7000" width="100%" xml:space="preserve" xmlns="http://www.w3.org/2000/svg" xmlns:vectornator="http://vectornator.io" xmlns:xlink="http://www.w3.org/1999/xlink">
<defs>
<clipPath id="TextBounds">
<rect height="3410.36" width="1203.51" x="2271.76" y="722.442"/>
</clipPath>
<filter color-interpolation-filters="sRGB" filterUnits="userSpaceOnUse" height="3309.28" id="Filter" width="596.877" x="2567.51" y="828.584">
<feComponentTransfer in="SourceGraphic" result="Alpha">
<feFuncA slope="0.998077" type="linear"/>
</feComponentTransfer>
<feDropShadow dx="-0.000105711" dy="28.7791" flood-color="#000000" flood-opacity="0.333" in="Alpha" result="Shadow" stdDeviation="7.57326"/>
</filter>
<clipPath id="TextBounds_2">
<rect height="277.788" width="229.51" x="2755.28" y="4489.89"/>
</clipPath>
<filter color-interpolation-filters="sRGB" filterUnits="userSpaceOnUse" height="249.231" id="Filter_2" width="211.33" x="2765.67" y="4511.73">
<feDropShadow dx="-3.67321e-05" dy="10" flood-color="#000000" flood-opacity="0.333" in="SourceGraphic" result="Shadow" stdDeviation="5"/>
</filter>
</defs>
<g id="图层-7" vectornator:layerName="图层 7"/>
<g id="图层-2" vectornator:layerName="图层 2"/>
<clipPath id="ArtboardFrame">
<rect height="7000" width="4000" x="0" y="0"/>
</clipPath>
<g clip-path="url(#ArtboardFrame)" id="图层-1" vectornator:layerName="图层 1">
<path d="M4002.9-7.58174L1.28537-7.58723L1.27805 7021.86L4002.89 7021.86L4002.9-7.58174Z" fill="#2e3b7a" fill-rule="evenodd" opacity="1" stroke="none"/>
<path d="M4258.48-103.08L-319.449-112.608L-309.28 7054.39L4275.89 7048.85L4258.48-103.08Z" fill="#2e3b69" fill-rule="evenodd" opacity="0.998077" stroke="none"/>
<path d="M-4.22556 2054.01C-6.67358 2724.44-9.17325 3394.82-11.7246 4065.13C-7.44494 4074.19-0.744409 4081.36 7.31219 4085.51C67.3413 4095.97 128.207 4095.37 187.717 4083.74C239.571 4055.35 301.786 4088.27 351.749 4048.54C367.739 4016.54 364.209 3979.97 366.543 3945C371.422 3868.38 343.97 3791.21 365.386 3714.87C366.156 3635.73 358.607 3557.16 365.624 3477.86C355.6 3375.67 370.809 3271.24 342.525 3170.59C267.756 3111.16 189.275 3157.09 127.73 3151.51C160.29 3141.71 209.239 3144.81 257.673 3141.78C334.781 3136.94 346.278 3121.02 343.092 3031.11C340.109 2925.93 328.052 2820.99 345.834 2717.72C337.054 2512 355.877 2307.84 360.542 2103.34C361.382 2068.23 362.39 2029.44 328.999 2028.39C218.078 2024.47 104.187 1999.75-4.22556 2054.01Z" fill="#465589" fill-rule="evenodd" opacity="1" stroke="none"/>
<path d="M-86.282 945.985L-63.6952 2019.77C60.2847 2049.48 183.969 2025.52 307.53 2023.66C342.322 2022.84 345.212 1990.67 349.323 1959.87C368.233 1819.09 368.943 1677.32 380.176 1536.19C394.644 1354.81 403.591 1172.85 420.889 991.406C425.387 945.163 421.395 899.119 370.809 900.837C217.735 906.371 63.4392 906.321-86.282 945.985Z" fill="#465589" fill-rule="evenodd" opacity="1" stroke="none"/>
<path d="M426.861 59.3926C443.102 39.4953 419.147-4.78599 415.911-28.2086C244.272-24.7715 215.158-46.4589 7.10534-13.6084C-30.2124-12.6323-70.5149 48.8922-69.1314 96.046C-61.4746 369.338-56.0596 642.863-49.7453 916.365C-27.7129 936.84-2.07936 927.925 22.4246 929.389C134.897 936.797 244.113 899.206 356.46 903.108C395.052 904.204 419.241 880.064 420.675 836.17C427.367 637.059 395.096 451.337 404.961 252.845C407.617 201.2 403.272 104.568 426.861 59.3926Z" fill="#465589" fill-rule="evenodd" opacity="1" stroke="none"/>
<path d="M-97.3837 6016.99C-102.106 6321.64-106.828 6626.29-114.989 6930.84C-117.049 7006.5-92.3889 7025.76-21.9595 7017.66C102.155 7003.6 227.114 6997.58 351.765 6988.25C346.84 6817.32 342.257 6646.38 330.818 6475.77C321.513 6344.77 345.081 6215.46 333.724 6084.68C326.081 5998.54 315.234 5985.28 229.011 5985.15C146.563 5984.93 64.0717 5987.86-18.4193 5990.8C-47.7541 5991.65-76.1799 5993.7-97.3837 6016.99Z" fill="#465589" fill-rule="evenodd" opacity="1" stroke="none"/>
<path d="M-91.5622 5017.8L-103.638 5985.9C25.5064 6012.28 154.301 5992.35 282.85 5987.51C328.269 5986.49 342.12 5943.72 337.84 5903.12C324.271 5772.03 340.058 5641.68 343.174 5511.27C346.291 5380.85 338.992 5250.33 356.021 5120.65C373.049 4990.97 346.675 4957.36 217.598 4970.46C123.431 4980.13 28.9749 4987-64.9538 4998.25C-75.3653 5002.34-84.5222 5009.07-91.5622 5017.8Z" fill="#465589" fill-rule="evenodd" opacity="1" stroke="none"/>
<path d="M-196.475 5017.8C-189.936 5017.67-183.229 5016.67-176.725 5015.85C-45.669 4990.2 88.7465 4976.99 223.961 4976.48C305.653 4976.01 341.654 4952.89 352.16 4884.63C368.05 4780.65 353.51 4676.19 356.11 4572.47C359.628 4419.78 385.929 4266.67 359.843 4113.13C335.06 4069.56 287.13 4073.78 242.346 4073.38C144.964 4072.56 48.8762 4089.08-48.8399 4085.81C-86.4954 4084.41-125.53 4093.38-160.708 4074.03L-171.688 4065.64C-176.466 4180.63-183.144 4295.66-185.813 4410.62C-190.662 4612.45-192.312 4814.92-196.475 5017.8Z" fill="#465589" fill-rule="evenodd" opacity="1" stroke="none"/>
<path d="M356.351 4113.02C352.705 4363.47 347.771 4613.78 346.311 4864.33C345.829 4936.8 329.367 4965.37 272.909 4962.53C207.07 4959.46 141.072 4972.18 75.1424 4978.75C57.738 4980.69-84.4779 4984.71-79.659 5028.94C5.1393 5022.14 207.677 5004.53 292.256 4994.75C332.18 4990.2 344.684 5008.58 343.634 5062.47C337.597 5341.12 332.844 5619.79 329.376 5898.47C328.615 5953.4 313.077 5974.4 272.127 5974.78C187.007 5975.27 14.3352 5992.77-70.8 5996.95C-71.2484 6007.49-72.6551 6012.32-72.9752 6022.85C1.5603 6020.58 164.8 6013.32 239.463 6011.04C332.216 6008.2 326.805 5990.82 323.762 6126.52C317.94 6377.21 328.405 6627.23 337.984 6877.62C339.13 6915.13 337.486 6953.77 351.53 6988.95L374.152 6985.46C337.734 6562.74 351.141 6140.07 356.589 5717.47C361.717 5318.04 372.763 4918.96 377.635 4519.54C383.097 4076.42 396.364 3632.35 372.555 3189.42C340.949 2600.6 380.805 2018.19 410.206 1434C422.439 1191.24 405.029 956.083 420.134 713.682C432.864 509.409 423.943 384.051 436.315 179.737C434.352 165.938 456.254-114.256 452.495-140.63C419.373-81.5518 411.704 151.631 407.19 205.625C390.669 404.539 384.38 588.007 374.83 788.111C372.091 845.56 400.166 886.968 361.065 889.04C250.31 895.231 57.8306 914.135-52.6787 924.178L-39.0249 948.755C72.0466 952.904 251.226 933.622 361.639 924.634C388.665 922.405 388.319 941.499 384.538 998.453C365.325 1319.37 371.261 1617.63 355.271 1938.98C352.644 1991.69 340.966 2008.71 303.099 2009.16C217.857 2009.84 40.7825 2007.01-44.4864 2011.02C-44.1382 2022.41-36.1559 2031.51-36.2941 2043.79C50.6854 2041.13 221.259 2049.73 308.025 2044.27C340.706 2042.22 349.858 2051.77 348.305 2101.81C343.748 2309.83 326.971 2517.17 335.408 2726.03C328.415 2871.14 344.278 3016.26 340.754 3161.45C347.271 3269.67 355.974 3377.99 348.123 3486.64L352.559 3728.42C341.776 3795.77 357.325 3863.36 354.506 3930.81C361.068 3990.08 351.894 4051.23 356.351 4113.02Z" fill="#fccd8b" fill-rule="evenodd" opacity="1" stroke="none"/>
<path d="M349.237 3170.14C344.706 3021.86 340.173 2873.53 335.638 2725.14C317.091 2828.33 331.839 2932.79 335.903 3036.34C337.762 3097.16 326.436 3117.33 281.401 3118.53C206.38 3121.07-41.1558 3131.28-114.439 3151.72C-21.4386 3186.42 245.301 3151.56 337.862 3171.89C339.42 3174.19 341.68 3175.35 343.935 3175.01C346.191 3174.66 348.164 3172.85 349.237 3170.14Z" fill="#e5b886" fill-rule="evenodd" opacity="1" stroke="none"/>
<path d="M356.351 4113.02C376.008 4054.53 360.155 3993.79 360.125 3933.97C357.946 3932.8 355.514 3933.08 353.548 3934.73C351.583 3936.37 350.311 3939.19 350.108 3942.34C349.946 3976.26 349.868 4010.12 349.874 4043.92C329.39 4054.84 308.054 4055.79 286.61 4055.43C261.627 4055.01 236.498 4052.8 212.403 4062.51L-101.501 4083.29C-101.21 4134.86 76.3555 4106.66 93.8081 4106.31C161.571 4105.11 229.216 4100.06 296.83 4098.17C316.816 4096.68 339.292 4084.24 356.351 4113.02Z" fill="#f8ca8a" fill-rule="evenodd" opacity="1" stroke="none"/>
</g>
<g id="图层-3" vectornator:layerName="图层 3">
<path d="M2113.87 287.201L3637.99 287.201C3654.56 287.201 3667.99 300.632 3667.99 317.201L3667.99 5201.71C3667.99 5218.28 3654.56 5231.71 3637.99 5231.71L2113.87 5231.71C2097.3 5231.71 2083.87 5218.28 2083.87 5201.71L2083.87 317.201C2083.87 300.632 2097.3 287.201 2113.87 287.201Z" fill="#e2e1db" fill-rule="evenodd" opacity="1" stroke="none"/>
<path d="M2289.42 445.454L3462.44 445.454C3475.19 445.454 3485.53 458.026 3485.53 473.534L3485.53 5045.37C3485.53 5060.88 3475.19 5073.45 3462.44 5073.45L2289.42 5073.45C2276.67 5073.45 2266.33 5060.88 2266.33 5045.37L2266.33 473.534C2266.33 458.026 2276.67 445.454 2289.42 445.454Z" fill="#e2e1db" fill-rule="evenodd" opacity="1" stroke="#2e3b69" stroke-linecap="butt" stroke-linejoin="round" stroke-width="50.8096"/>
<g fill="#000000" filter="url(#Filter)" stroke="none" vectornator:blendMode="darken" vectornator:shadowAngle="1.5708" vectornator:shadowColor="#000000" vectornator:shadowOffset="28.7791" vectornator:shadowOpacity="0.333" vectornator:shadowRadius="15.1465">
<path clip-path="url(#TextBounds)" d="M2762.31 836.505C2769.91 826.999 2775.61 826.049 2779.42 833.653C2787.02 852.663 2794.62 882.13 2802.23 922.051C2802.23 929.656 2803.18 933.458 2805.08 933.458C2806.98 935.359 2808.88 934.408 2810.78 930.606C2820.29 919.2 2826.94 913.497 2830.74 913.497C2832.64 913.497 2831.69 919.2 2827.89 930.606C2818.39 955.32 2814.58 975.281 2816.49 990.489C2810.78 1005.7 2796.52 1010.45 2773.71 1004.75C2728.09 953.419 2724.29 897.338 2762.31 836.505ZM3038.91 850.762C3052.21 884.981 3037.01 915.398 2993.28 942.012C2981.88 949.617 2960.96 964.825 2930.55 987.637C2921.04 995.242 2919.14 993.34 2924.84 981.934C2972.37 928.705 2994.23 887.833 2990.43 859.317C2977.12 844.109 2960.96 844.109 2941.95 859.317C2940.05 859.317 2935.3 865.971 2927.7 879.278C2921.99 884.981 2921.04 893.536 2924.84 904.942C2926.75 912.546 2927.7 923.002 2927.7 936.309C2916.29 949.617 2901.08 948.666 2882.07 933.458C2874.47 918.249 2869.71 903.041 2867.81 887.833C2867.81 887.833 2867.81 886.882 2867.81 884.981C2869.71 877.377 2869.71 872.624 2867.81 870.723C2865.91 868.822 2864.96 866.921 2864.96 865.02C2866.86 863.119 2869.71 862.169 2873.52 862.169C2896.33 856.465 2909.64 860.268 2913.44 873.575C2936.25 852.663 2959.06 840.307 2981.88 836.505C3008.49 834.604 3027.5 839.356 3038.91 850.762ZM3024.65 1016.15C3053.17 1025.66 3068.37 1042.77 3070.27 1067.48C3070.27 1084.59 3053.17 1096 3018.95 1101.7C2998.04 1107.4 2978.07 1117.86 2959.06 1133.07C2964.77 1144.47 2961.92 1155.88 2950.51 1167.29C2931.5 1176.79 2912.49 1200.55 2893.48 1238.57C2902.98 1246.18 2910.59 1257.59 2916.29 1272.79C2969.52 1261.39 2998.04 1265.19 3001.84 1284.2C3005.64 1297.51 3000.89 1307.96 2987.58 1315.57C2974.27 1315.57 2962.87 1314.62 2953.36 1312.72C2941.95 1308.91 2931.5 1307.96 2921.99 1309.86C2925.8 1326.97 2925.8 1343.13 2921.99 1358.34C2904.88 1388.76 2880.17 1403.97 2847.85 1403.97C2830.74 1396.36 2808.88 1381.15 2782.27 1358.34C2778.46 1348.84 2779.42 1340.28 2785.12 1332.68C2806.03 1306.06 2840.25 1288 2887.77 1278.5C2883.97 1268.99 2880.17 1260.44 2876.37 1252.83C2870.67 1233.82 2868.76 1216.71 2870.67 1201.5C2872.57 1199.6 2874.47 1195.8 2876.37 1190.1C2883.97 1176.79 2890.63 1167.29 2896.33 1161.58C2833.59 1193.9 2798.43 1199.6 2790.82 1178.69C2788.92 1176.79 2787.97 1174.89 2787.97 1172.99C2787.97 1171.09 2789.87 1170.14 2793.67 1170.14C2801.28 1172.04 2810.78 1170.14 2822.19 1164.43C2867.81 1137.82 2910.59 1125.46 2950.51 1127.36C2971.42 1112.16 2990.43 1095.05 3007.54 1076.04C3017.05 1057.03 3005.64 1045.62 2973.32 1041.82C2901.08 1051.32 2824.09 1078.89 2742.34 1124.51C2729.04 1134.02 2722.38 1141.62 2722.38 1147.32C2722.38 1151.13 2721.43 1156.83 2719.53 1164.43C2719.53 1170.14 2718.58 1174.89 2716.68 1178.69C2701.47 1184.4 2689.12 1182.49 2679.61 1172.99C2670.11 1146.37 2668.2 1130.22 2673.91 1124.51C2673.91 1122.61 2674.86 1120.71 2676.76 1118.81C2690.07 1097.9 2697.67 1083.64 2699.57 1076.04C2701.47 1072.23 2703.37 1070.33 2705.27 1070.33C2709.08 1072.23 2711.93 1075.09 2713.83 1078.89C2715.73 1080.79 2716.68 1084.59 2716.68 1090.29C2718.58 1096 2719.53 1100.75 2719.53 1104.55C2846.9 1034.21 2948.61 1004.75 3024.65 1016.15ZM2887.77 1312.72C2857.36 1312.72 2826.94 1320.32 2796.52 1335.53C2790.82 1341.23 2790.82 1346.93 2796.52 1352.64C2819.34 1371.65 2841.2 1374.5 2862.11 1361.19C2877.32 1349.79 2885.87 1333.63 2887.77 1312.72Z" fill-rule="evenodd"/>
<path clip-path="url(#TextBounds)" d="M2950.51 1740.45C2979.02 1751.86 2992.33 1777.52 2990.43 1817.44C2988.53 1902.99 2988.53 1988.54 2990.43 2074.08C2992.33 2176.74 2980.93 2243.28 2956.21 2273.69C2939.1 2290.8 2922.94 2288.9 2907.74 2267.99C2894.43 2250.88 2876.37 2231.87 2853.56 2210.96C2836.45 2193.85 2833.59 2185.29 2845 2185.29C2862.11 2192.9 2882.07 2199.55 2904.88 2205.25C2918.19 2210.96 2925.8 2208.11 2927.7 2196.7C2941 2152.98 2948.61 2063.63 2950.51 1928.65C2904.88 1966.67 2870.67 1998.99 2847.85 2025.61C2842.15 2029.41 2834.55 2037.01 2825.04 2048.42C2785.12 2084.54 2752.8 2112.1 2728.09 2131.11C2699.57 2153.93 2678.66 2152.03 2665.35 2125.41C2659.65 2110.2 2656.8 2096.9 2656.8 2085.49C2658.7 2079.79 2660.6 2076.93 2662.5 2076.93C2666.3 2076.93 2669.15 2078.84 2671.06 2082.64C2672.96 2088.34 2680.56 2086.44 2693.87 2076.93C2691.97 2076.93 2692.92 2075.98 2696.72 2074.08C2789.87 2011.35 2871.62 1960.02 2941.95 1920.1C2947.66 1916.3 2949.56 1913.44 2947.66 1911.54C2951.46 1841.21 2949.56 1797.48 2941.95 1780.37C2941.95 1774.67 2935.3 1774.67 2921.99 1780.37C2859.26 1805.09 2814.58 1813.64 2787.97 1806.04C2780.37 1804.13 2776.56 1802.23 2776.56 1800.33C2776.56 1796.53 2780.37 1793.68 2787.97 1791.78C2789.87 1789.88 2793.67 1787.98 2799.38 1786.07C2818.39 1774.67 2833.59 1767.06 2845 1763.26C2898.23 1738.55 2933.4 1730.94 2950.51 1740.45ZM2719.53 1883.03C2727.14 1873.52 2739.49 1873.52 2756.6 1883.03C2800.33 1913.44 2815.54 1937.21 2802.23 1954.32C2796.52 1965.72 2787.02 1972.38 2773.71 1974.28C2766.11 1976.18 2755.65 1980.93 2742.34 1988.54C2713.83 2007.55 2704.32 2010.4 2713.83 1997.09C2740.44 1972.38 2747.1 1950.51 2733.79 1931.5C2716.68 1906.79 2711.93 1890.63 2719.53 1883.03Z" fill-rule="evenodd"/>
<path clip-path="url(#TextBounds)" d="M2813.63 2638.69C2832.64 2648.2 2840.25 2662.46 2836.45 2681.47C2825.04 2702.38 2818.39 2728.99 2816.49 2761.31C2852.61 2732.79 2868.76 2713.78 2864.96 2704.28C2857.36 2700.48 2858.31 2698.57 2867.81 2698.57C2896.33 2694.77 2912.49 2700.48 2916.29 2715.68C2920.09 2732.79 2908.69 2745.15 2882.07 2752.75C2859.26 2762.26 2836.45 2767.01 2813.63 2767.01C2813.63 2786.02 2811.73 2800.28 2807.93 2809.79C2806.03 2813.59 2805.08 2820.24 2805.08 2829.75C2810.78 2827.85 2820.29 2824.04 2833.59 2818.34C2845 2814.54 2853.56 2811.69 2859.26 2809.79C2859.26 2802.18 2858.31 2793.63 2856.41 2784.12C2856.41 2776.52 2856.41 2772.72 2856.41 2772.72C2858.31 2772.72 2861.16 2775.57 2864.96 2781.27C2872.57 2794.58 2886.82 2800.28 2907.74 2798.38C2938.15 2766.06 2963.82 2736.6 2984.73 2709.98C2986.63 2708.08 2987.58 2707.13 2987.58 2707.13C2991.38 2697.62 2997.08 2694.77 3004.69 2698.57C3012.29 2698.57 3014.19 2706.18 3010.39 2721.39C3002.79 2772.72 2985.68 2823.09 2959.06 2872.52C2957.16 2876.32 2957.16 2879.17 2959.06 2881.07C2960.96 2882.98 2963.82 2882.98 2967.62 2881.07C2988.53 2875.37 3003.74 2873.47 3013.24 2875.37C3028.45 2875.37 3040.81 2882.03 3050.31 2895.33C3059.82 2904.84 3058.87 2924.8 3047.46 2955.22C3039.86 2972.32 3029.4 2990.38 3016.09 3009.4C3044.61 3030.31 3066.47 3048.37 3081.68 3063.57C3098.79 3084.49 3099.74 3100.65 3084.53 3112.05C3069.32 3110.15 3058.87 3103.5 3053.17 3092.09C3045.56 3073.08 3025.6 3052.17 2993.28 3029.36C2991.38 3031.26 2988.53 3034.11 2984.73 3037.91C2961.92 3062.62 2941.95 3078.78 2924.84 3086.39C2903.93 3097.79 2884.92 3095.89 2867.81 3080.68C2854.51 3052.17 2864.01 3026.5 2896.33 3003.69C2921.04 2982.78 2950.51 2978.03 2984.73 2989.43C3003.74 2966.62 3015.14 2941.91 3018.95 2915.29C3020.85 2900.09 3016.09 2894.38 3004.69 2898.18C2993.28 2900.09 2976.17 2906.74 2953.36 2918.15C2943.86 2923.85 2936.25 2921.95 2930.55 2912.44C2924.84 2901.04 2925.8 2888.68 2933.4 2875.37C2958.11 2831.65 2974.27 2786.02 2981.88 2738.5C2981.88 2730.89 2979.98 2729.94 2976.17 2735.65C2966.67 2747.05 2954.31 2761.31 2939.1 2778.42C2931.5 2789.82 2925.8 2797.43 2921.99 2801.23C2933.4 2812.64 2923.89 2824.99 2893.48 2838.3C2887.77 2840.2 2880.17 2845.91 2870.67 2855.41C2868.76 2859.21 2864.96 2863.97 2859.26 2869.67C2830.74 2905.79 2809.83 2933.35 2796.52 2952.36C2792.72 2971.37 2790.82 2996.09 2790.82 3026.5C2790.82 3032.21 2788.92 3035.06 2785.12 3035.06C2781.32 3035.06 2778.46 3033.16 2776.56 3029.36C2772.76 3019.85 2770.86 3006.54 2770.86 2989.43C2744.25 3019.85 2726.19 3047.42 2716.68 3072.13C2714.78 3079.73 2715.73 3085.44 2719.53 3089.24C2721.43 3091.14 2727.14 3091.14 2736.64 3089.24C2782.27 3079.73 2814.58 3043.61 2833.59 2980.88C2839.3 2954.26 2841.2 2933.35 2839.3 2918.15C2835.5 2914.34 2834.55 2911.49 2836.45 2909.59C2836.45 2907.69 2838.35 2906.74 2842.15 2906.74C2864.96 2901.04 2875.42 2909.59 2873.52 2932.4C2864.01 3017.95 2828.84 3079.73 2768.01 3117.75C2729.99 3132.96 2704.32 3131.06 2691.02 3112.05C2683.41 3098.74 2683.41 3083.54 2691.02 3066.43C2710.03 3037.91 2736.64 3004.64 2770.86 2966.62C2770.86 2949.51 2771.81 2922.9 2773.71 2886.78C2768.01 2890.58 2751.85 2894.38 2725.24 2898.18C2704.32 2903.89 2691.02 2899.13 2685.31 2883.93C2683.41 2874.42 2688.17 2868.72 2699.57 2866.82C2701.47 2868.72 2705.27 2868.72 2710.98 2866.82C2728.09 2859.21 2749.95 2850.66 2776.56 2841.15C2776.56 2837.35 2777.51 2828.8 2779.42 2815.49C2783.22 2777.47 2786.07 2756.56 2787.97 2752.75C2793.67 2726.14 2794.62 2704.28 2790.82 2687.17C2792.72 2660.55 2800.33 2644.4 2813.63 2638.69ZM2748.05 2752.75C2749.95 2750.85 2751.85 2749.9 2753.75 2749.9C2755.65 2751.8 2756.6 2754.66 2756.6 2758.46C2756.6 2773.67 2753.75 2786.02 2748.05 2795.53C2738.54 2805.03 2727.14 2806.93 2713.83 2801.23C2710.03 2797.43 2709.08 2787.92 2710.98 2772.72C2710.98 2768.91 2710.98 2766.06 2710.98 2764.16C2714.78 2754.66 2720.48 2751.8 2728.09 2755.61C2731.89 2763.21 2738.54 2762.26 2748.05 2752.75ZM2856.41 2855.41C2852.61 2857.31 2846.9 2859.21 2839.3 2861.11C2822.19 2866.82 2810.78 2870.62 2805.08 2872.52C2805.08 2878.22 2804.13 2886.78 2802.23 2898.18C2802.23 2911.49 2801.28 2921 2799.38 2926.7C2818.39 2903.89 2837.4 2880.12 2856.41 2855.41ZM2967.62 3012.25C2956.21 3002.74 2941 3001.79 2921.99 3009.4C2897.28 3020.8 2883.02 3035.06 2879.22 3052.17C2875.42 3067.38 2884.92 3070.23 2907.74 3060.72C2924.84 3053.12 2944.81 3036.96 2967.62 3012.25Z" fill-rule="evenodd"/>
<path clip-path="url(#TextBounds)" d="M3038.91 3485.61C3061.72 3497.01 3069.32 3519.82 3061.72 3554.04C3029.4 3599.67 2984.73 3634.84 2927.7 3659.55C2925.8 3693.77 2916.29 3740.35 2899.18 3799.28C2906.79 3799.28 2933.4 3785.97 2979.02 3759.36C2998.04 3708.03 3006.59 3676.66 3004.69 3665.25C3002.79 3657.65 3006.59 3654.8 3016.09 3656.7C3038.91 3666.21 3049.36 3675.71 3047.46 3685.22C3039.86 3711.83 3033.2 3728.94 3027.5 3736.54C3025.6 3742.25 3027.5 3743.2 3033.2 3739.4C3038.91 3737.49 3048.41 3735.59 3061.72 3733.69C3088.33 3727.99 3107.34 3724.19 3118.75 3722.29C3132.06 3718.48 3141.56 3727.04 3147.27 3747.95C3152.97 3763.16 3146.32 3770.76 3127.31 3770.76C3094.99 3772.66 3057.92 3781.22 3016.09 3796.43C3016.09 3796.43 3015.14 3796.43 3013.24 3796.43C3009.44 3798.33 3006.59 3802.13 3004.69 3807.83C3002.79 3817.34 2998.99 3831.6 2993.28 3850.61C2987.58 3871.52 2982.83 3886.73 2979.02 3896.23C2980.93 3900.03 2981.88 3900.98 2981.88 3899.08C3004.69 3880.07 3022.75 3867.72 3036.06 3862.01C3060.77 3858.21 3075.98 3862.01 3081.68 3873.42C3087.38 3903.84 3084.53 3927.6 3073.13 3944.71C3069.32 3946.61 3064.57 3953.26 3058.87 3964.67C3055.07 3970.37 3052.21 3975.12 3050.31 3978.93C3050.31 3980.83 3053.17 3981.78 3058.87 3981.78C3115.9 3977.98 3139.66 3991.28 3130.16 4021.7C3122.55 4038.81 3109.25 4049.26 3090.24 4053.07C3084.53 4056.87 3077.88 4062.57 3070.27 4070.18C3060.77 4079.68 3047.46 4087.29 3030.35 4092.99C3024.65 4094.89 3022.75 4093.94 3024.65 4090.14C3055.07 4055.92 3070.27 4034.06 3070.27 4024.55C3062.67 4022.65 3051.26 4025.5 3036.06 4033.11C3005.64 4035.01 2995.18 4015.05 3004.69 3973.22C3014.19 3954.21 3019.9 3936.15 3021.8 3919.04C3023.7 3915.24 3023.7 3913.34 3021.8 3913.34C3018 3913.34 3015.14 3914.29 3013.24 3916.19C3003.74 3927.6 2990.43 3939.96 2973.32 3953.26C2967.62 3957.06 2963.82 3965.62 2961.92 3978.93C2952.41 4005.54 2941.95 4019.8 2930.55 4021.7C2922.94 4014.1 2919.14 3998.89 2919.14 3976.07C2921.04 3974.17 2924.84 3966.57 2930.55 3953.26C2932.45 3947.56 2933.4 3943.76 2933.4 3941.86C2937.2 3915.24 2947.66 3871.52 2964.77 3810.68C2941.95 3816.39 2917.24 3823.99 2890.63 3833.5C2881.12 3837.3 2873.52 3844.9 2867.81 3856.31C2860.21 3873.42 2844.05 3899.08 2819.34 3933.3C2815.54 3939 2812.68 3943.76 2810.78 3947.56C2805.08 3955.16 2800.33 3958.01 2796.52 3956.11C2792.72 3954.21 2792.72 3948.51 2796.52 3939C2857.36 3821.14 2886.82 3725.14 2884.92 3651C2881.12 3633.89 2889.68 3626.28 2910.59 3628.18C2923.89 3624.38 2943.86 3603.47 2970.47 3565.45C2972.37 3563.55 2973.32 3561.65 2973.32 3559.75C2973.32 3557.85 2970.47 3555.94 2964.77 3554.04C2962.87 3554.04 2955.26 3552.14 2941.95 3548.34C2936.25 3546.44 2932.45 3545.49 2930.55 3545.49C2926.75 3535.98 2929.6 3527.43 2939.1 3519.82C2975.22 3497.01 3008.49 3485.61 3038.91 3485.61ZM2733.79 3499.86C2747.1 3497.96 2754.7 3507.47 2756.6 3528.38C2756.6 3554.99 2756.6 3579.71 2756.6 3602.52C2781.32 3606.32 2794.62 3616.78 2796.52 3633.89C2802.23 3649.1 2787.97 3669.06 2753.75 3693.77C2746.15 3695.67 2742.34 3709.93 2742.34 3736.54C2742.34 3742.25 2744.25 3743.2 2748.05 3739.4C2763.26 3718.48 2777.51 3700.42 2790.82 3685.22C2798.43 3677.61 2803.18 3674.76 2805.08 3676.66C2806.98 3676.66 2806.03 3682.36 2802.23 3693.77C2792.72 3718.48 2782.27 3738.44 2770.86 3753.65C2768.96 3755.55 2767.06 3758.41 2765.16 3762.21C2751.85 3783.12 2742.34 3799.28 2736.64 3810.68C2734.74 3825.89 2733.79 3854.41 2733.79 3896.23C2733.79 3958.97 2731.89 4016.95 2728.09 4070.18C2724.29 4087.29 2717.63 4092.04 2708.13 4084.43C2694.82 4071.13 2685.31 4047.36 2679.61 4013.15C2679.61 4001.74 2681.51 3999.84 2685.31 4007.44C2691.02 4009.34 2693.87 4008.39 2693.87 4004.59C2695.77 3968.47 2700.52 3921.9 2708.13 3864.86C2708.13 3857.26 2708.13 3853.46 2708.13 3853.46C2706.23 3853.46 2703.37 3856.31 2699.57 3862.01C2674.86 3905.74 2649.19 3943.76 2622.58 3976.07C2599.77 3977.98 2586.46 3967.52 2582.66 3944.71C2590.26 3914.29 2632.08 3860.11 2708.13 3782.17C2708.13 3774.56 2709.08 3764.11 2710.98 3750.8C2710.98 3737.49 2710.98 3727.99 2710.98 3722.29C2680.56 3733.69 2650.14 3731.79 2619.73 3716.58C2614.02 3712.78 2610.22 3708.98 2608.32 3705.18C2608.32 3701.37 2611.17 3698.52 2616.88 3696.62C2628.28 3690.92 2655.85 3673.81 2699.57 3645.29C2693.87 3649.1 2698.62 3646.24 2713.83 3636.74C2713.83 3610.12 2714.78 3592.06 2716.68 3582.56C2716.68 3559.75 2716.68 3539.79 2716.68 3522.68C2714.78 3507.47 2720.48 3499.86 2733.79 3499.86Z" fill-rule="evenodd"/>
</g>
</g>
<g id="图层-4" vectornator:layerName="图层 4">
<g fill="#882123" filter="url(#Filter_2)" stroke="#602220" stroke-linecap="butt" stroke-linejoin="round" stroke-width="2.42801" vectornator:shadowAngle="1.5708" vectornator:shadowColor="#000000" vectornator:shadowOffset="10" vectornator:shadowOpacity="0.333" vectornator:shadowRadius="10">
<path clip-path="url(#TextBounds_2)" d="M2789.89 4513.73C2790.48 4514.32 2791.8 4515.05 2793.86 4515.94C2794.16 4516.23 2794.3 4516.38 2794.3 4516.38C2795.78 4516.67 2796.81 4518.59 2797.39 4522.12C2797.69 4523.59 2796.95 4524.76 2795.19 4525.65C2793.13 4526.53 2791.8 4526.53 2791.21 4525.65C2790.92 4524.76 2790.04 4524.76 2788.57 4525.65C2787.68 4526.24 2787.24 4526.24 2787.24 4525.65C2787.24 4525.35 2787.54 4524.62 2788.12 4523.44C2786.65 4521.97 2785.03 4519.62 2783.27 4516.38C2782.68 4515.5 2783.27 4514.76 2785.03 4514.17C2787.39 4512.7 2789.01 4512.55 2789.89 4513.73ZM2831.82 4521.68C2833.29 4520.5 2835.5 4520.5 2838.44 4521.68C2841.98 4523.15 2843.15 4524.76 2841.98 4526.53C2839.92 4534.48 2836.83 4542.72 2832.71 4551.25C2830.06 4554.78 2828 4557.13 2826.53 4558.31C2830.94 4556.84 2835.94 4555.81 2841.53 4555.22C2845.65 4554.93 2848.6 4556.4 2850.36 4559.64C2850.95 4561.99 2849.92 4564.05 2847.27 4565.82C2841.98 4567.58 2836.38 4570.67 2830.5 4575.09C2828.15 4576.26 2827.85 4575.97 2829.62 4574.2C2832.56 4570.97 2834.47 4568.02 2835.35 4565.37C2835.06 4565.67 2834.32 4565.96 2833.15 4566.26C2830.79 4567.14 2829.03 4567.88 2827.85 4568.46C2825.79 4569.35 2822.11 4570.23 2816.82 4571.11C2815.34 4571.11 2813.87 4570.52 2812.4 4569.35C2810.93 4566.99 2810.93 4565.37 2812.4 4564.49C2814.17 4563.61 2815.93 4561.99 2817.7 4559.64C2818.88 4557.87 2819.46 4557.58 2819.46 4558.75C2823 4552.28 2825.35 4546.25 2826.53 4540.66C2826.82 4539.48 2826.67 4538.74 2826.09 4538.45C2825.79 4538.15 2825.06 4538.3 2823.88 4538.89C2820.35 4540.95 2816.67 4540.51 2812.84 4537.57C2810.78 4535.21 2810.78 4533.59 2812.84 4532.71C2814.9 4532.12 2817.11 4531.09 2819.46 4529.62C2820.35 4529.03 2821.97 4528 2824.32 4526.53C2827.56 4524.47 2830.06 4522.85 2831.82 4521.68ZM2782.39 4534.92C2782.97 4535.21 2783.71 4535.8 2784.59 4536.68C2787.54 4539.63 2789.45 4541.1 2790.33 4541.1C2791.21 4541.1 2791.66 4542.27 2791.66 4544.63C2791.66 4546.98 2790.63 4548.16 2788.57 4548.16C2786.51 4548.16 2785.18 4548.9 2784.59 4550.37C2783.71 4551.54 2783.42 4551.4 2783.71 4549.93C2784.3 4548.45 2784.3 4547.28 2783.71 4546.39C2783.71 4546.39 2783.56 4546.1 2783.27 4545.51C2782.68 4544.63 2782.39 4543.89 2782.39 4543.3C2782.39 4542.13 2781.8 4541.1 2780.62 4540.21C2779.44 4539.33 2779.3 4538.15 2780.18 4536.68C2781.06 4534.62 2781.8 4534.03 2782.39 4534.92ZM2799.16 4552.13C2797.69 4556.25 2796.81 4559.93 2796.51 4563.17C2796.51 4563.46 2796.36 4564.05 2796.07 4564.93C2795.78 4566.7 2795.48 4567.88 2795.19 4568.46C2793.13 4573.76 2792.98 4577.73 2794.75 4580.38C2795.33 4582.44 2794.89 4585.09 2793.42 4588.33C2790.77 4588.92 2788.71 4588.77 2787.24 4587.89C2785.48 4585.53 2783.56 4583.91 2781.5 4583.03C2780.03 4582.44 2779.59 4581.41 2780.18 4579.94C2781.06 4578.47 2782.24 4577.73 2783.71 4577.73C2788.12 4572.73 2792.98 4563.9 2798.28 4551.25C2800.04 4548.6 2800.34 4548.9 2799.16 4552.13Z" fill-rule="evenodd"/>
<path clip-path="url(#TextBounds_2)" d="M2947.47 4518.14C2950.41 4517.85 2952.33 4518.73 2953.21 4520.79C2954.39 4522.26 2954.83 4523.44 2954.53 4524.32C2954.24 4525.21 2953.36 4525.65 2951.89 4525.65C2948.06 4524.47 2941.44 4525.79 2932.02 4529.62C2920.25 4534.03 2909.51 4535.65 2899.8 4534.48C2895.97 4534.18 2894.21 4533.59 2894.5 4532.71C2895.09 4531.83 2897.59 4530.8 2902.01 4529.62C2903.77 4529.03 2906.13 4528.3 2909.07 4527.41C2914.37 4525.94 2918.93 4524.62 2922.75 4523.44C2935.11 4519.32 2943.35 4517.56 2947.47 4518.14ZM2937.32 4535.8C2940.26 4534.03 2941.59 4536.83 2941.29 4544.19C2941.29 4544.78 2941.59 4545.07 2942.18 4545.07C2950.12 4543.89 2955.42 4545.07 2958.07 4548.6C2960.71 4552.13 2961.01 4555.96 2958.95 4560.08C2954.24 4567.14 2945.12 4572.88 2931.58 4577.29C2931.58 4577.29 2931.43 4577.29 2931.14 4577.29C2929.96 4577.59 2929.08 4578.18 2928.49 4579.06C2928.49 4579.06 2928.05 4579.5 2927.17 4580.38C2925.7 4581.56 2924.81 4582.29 2924.52 4582.59C2923.34 4583.18 2922.61 4583.47 2922.31 4583.47C2922.02 4583.18 2922.31 4582.59 2923.19 4581.71C2925.25 4579.65 2925.4 4578.62 2923.64 4578.62C2918.04 4578.62 2913.78 4577.15 2910.84 4574.2C2909.95 4573.32 2909.66 4572.88 2909.95 4572.88C2910.25 4572.88 2911.42 4573.03 2913.48 4573.32C2917.31 4574.2 2922.02 4574.5 2927.61 4574.2C2931.43 4566.26 2933.79 4558.46 2934.67 4550.81C2934.67 4549.93 2934.23 4549.63 2933.35 4549.93C2931.58 4550.22 2929.67 4550.81 2927.61 4551.69C2926.14 4552.87 2925.25 4554.49 2924.96 4556.55C2924.96 4557.43 2924.81 4558.46 2924.52 4559.64C2924.52 4562.87 2924.22 4565.52 2923.64 4567.58C2923.05 4570.82 2921.43 4571.55 2918.78 4569.79C2916.13 4569.2 2915.69 4565.37 2917.46 4558.31C2917.46 4557.72 2917.01 4557.58 2916.13 4557.87C2911.42 4560.52 2907.45 4564.05 2904.21 4568.46C2903.33 4569.64 2903.33 4570.97 2904.21 4572.44C2905.69 4575.38 2905.98 4577.29 2905.1 4578.18C2904.21 4579.06 2902.74 4579.06 2900.68 4578.18C2897.45 4576.7 2895.68 4573.32 2895.39 4568.02C2895.09 4561.55 2898.33 4553.46 2905.1 4543.75C2905.98 4542.57 2906.72 4541.83 2907.3 4541.54C2908.19 4541.54 2908.48 4541.98 2908.19 4542.86C2904.36 4550.22 2902.6 4556.84 2902.89 4562.73C2902.89 4563.02 2903.18 4563.02 2903.77 4562.73C2904.66 4562.14 2905.98 4561.11 2907.75 4559.64C2912.16 4556.69 2915.25 4554.63 2917.01 4553.46C2918.19 4552.87 2918.78 4552.28 2918.78 4551.69C2919.37 4549.63 2919.81 4547.72 2920.1 4545.95C2920.4 4544.78 2920.69 4543.6 2920.99 4542.42C2920.99 4542.72 2921.13 4542.42 2921.43 4541.54C2921.72 4540.66 2922.16 4540.21 2922.75 4540.21C2923.34 4540.21 2923.78 4540.8 2924.08 4541.98C2924.67 4542.57 2924.81 4544.92 2924.52 4549.04C2924.81 4549.63 2924.96 4549.78 2924.96 4549.48C2925.84 4548.6 2926.87 4547.42 2928.05 4545.95C2930.11 4543.6 2931.58 4541.98 2932.46 4541.1C2933.05 4540.51 2933.35 4539.77 2933.35 4538.89C2933.35 4538.89 2933.49 4538.6 2933.79 4538.01C2933.79 4537.12 2934.97 4536.39 2937.32 4535.8ZM2934.67 4541.1C2934.67 4540.8 2934.52 4540.66 2934.23 4540.66C2933.94 4540.95 2933.64 4541.39 2933.35 4541.98C2931.58 4544.04 2930.4 4545.81 2929.82 4547.28C2929.82 4547.57 2929.96 4547.72 2930.26 4547.72C2930.85 4547.72 2931.58 4547.57 2932.46 4547.28C2933.35 4546.98 2934.08 4546.84 2934.67 4546.84C2935.55 4546.54 2935.85 4546.25 2935.55 4545.95C2935.55 4545.36 2935.41 4544.63 2935.11 4543.75C2935.11 4542.57 2934.97 4541.69 2934.67 4541.1ZM2943.06 4548.16C2942.18 4548.16 2941.73 4548.6 2941.73 4549.48C2939.67 4560.37 2937.03 4568.02 2933.79 4572.44C2940.26 4569.49 2945.85 4566.26 2950.56 4562.73C2954.09 4560.08 2955.42 4556.99 2954.53 4553.46C2953.65 4548.75 2949.83 4546.98 2943.06 4548.16Z" fill-rule="evenodd"/>
<path clip-path="url(#TextBounds_2)" d="M2814.61 4636.44C2815.49 4635.26 2816.23 4635.26 2816.82 4636.44C2819.17 4642.03 2819.32 4645.12 2817.26 4645.71C2817.26 4645.71 2817.26 4646 2817.26 4646.59C2816.67 4648.95 2816.52 4650.27 2816.82 4650.57C2821.82 4647.62 2825.79 4646.3 2828.73 4646.59C2830.21 4646.89 2830.79 4648.21 2830.5 4650.57C2827.56 4655.27 2822.7 4659.98 2815.93 4664.69C2815.93 4664.98 2815.93 4665.57 2815.93 4666.46C2815.64 4667.34 2815.49 4668.07 2815.49 4668.66C2816.96 4668.37 2817.99 4668.52 2818.58 4669.1C2820.64 4670.87 2821.38 4672.93 2820.79 4675.28C2820.49 4676.17 2818.58 4678.23 2815.05 4681.46C2815.05 4682.05 2815.05 4682.79 2815.05 4683.67C2823.29 4680.14 2829.03 4678.96 2832.26 4680.14C2834.32 4681.91 2834.62 4683.23 2833.15 4684.11C2831.68 4684.41 2829.18 4684.85 2825.64 4685.44C2819.17 4687.5 2814.17 4692.35 2810.64 4700C2810.93 4699.71 2811.37 4699.41 2811.96 4699.12C2814.31 4697.94 2816.08 4697.06 2817.26 4696.47C2821.38 4695.88 2823.58 4697.21 2823.88 4700.44C2823.88 4704.56 2824.32 4710.16 2825.2 4717.22C2825.5 4720.75 2825.35 4726.05 2824.76 4733.11C2822.7 4738.7 2819.76 4740.76 2815.93 4739.29C2814.46 4737.82 2812.11 4735.17 2808.87 4731.34C2808.28 4730.75 2807.99 4730.46 2807.99 4730.46C2807.4 4729.58 2807.69 4729.28 2808.87 4729.58C2810.34 4730.17 2812.84 4731.93 2816.37 4734.87C2817.85 4735.17 2818.88 4734.14 2819.46 4731.78C2820.64 4719.72 2820.35 4709.86 2818.58 4702.21C2817.99 4700.44 2816.96 4699.71 2815.49 4700C2813.73 4700.59 2811.22 4702.21 2807.99 4704.86C2805.04 4709.57 2803.57 4716.19 2803.57 4724.72C2804.16 4727.37 2804.16 4730.31 2803.57 4733.55C2802.98 4735.9 2801.81 4736.64 2800.04 4735.76C2797.98 4730.75 2797.84 4728.25 2799.6 4728.25C2800.48 4715.31 2804.9 4703.24 2812.84 4692.06C2796.07 4704.71 2784.74 4709.13 2778.85 4705.3C2776.79 4704.12 2776.35 4702.95 2777.53 4701.77C2781.65 4699.41 2791.21 4694.85 2806.22 4688.09C2801.51 4685.44 2800.63 4681.91 2803.57 4677.49C2805.34 4674.84 2807.25 4672.78 2809.31 4671.31C2809.31 4669.84 2809.31 4668.66 2809.31 4667.78C2801.07 4669.84 2795.63 4669.4 2792.98 4666.46C2792.69 4664.98 2792.98 4663.81 2793.86 4662.93C2794.75 4662.34 2796.81 4661.31 2800.04 4659.84C2805.04 4657.19 2808.72 4655.27 2811.08 4654.1C2811.67 4642.91 2812.84 4637.03 2814.61 4636.44ZM2809.31 4677.93C2806.96 4679.7 2806.22 4681.46 2807.1 4683.23C2807.99 4684.11 2808.72 4684.11 2809.31 4683.23C2809.31 4681.17 2809.31 4679.4 2809.31 4677.93ZM2816.37 4707.51C2818.14 4708.1 2818.58 4709.27 2817.7 4711.04C2815.93 4712.22 2814.31 4713.54 2812.84 4715.01C2812.25 4716.19 2812.25 4716.78 2812.84 4716.78C2813.43 4717.07 2814.76 4717.22 2816.82 4717.22C2818.88 4717.51 2819.76 4718.25 2819.46 4719.43C2818.58 4720.31 2817.11 4721.04 2815.05 4721.63C2814.76 4721.63 2814.17 4721.93 2813.28 4722.51C2812.4 4723.1 2811.81 4723.54 2811.52 4723.84C2810.64 4724.13 2810.64 4723.84 2811.52 4722.96C2812.4 4721.78 2812.99 4720.75 2813.28 4719.87C2810.34 4718.4 2809.61 4715.6 2811.08 4711.48C2809.61 4710.89 2809.16 4710.45 2809.75 4710.16C2809.75 4710.16 2809.9 4710.01 2810.19 4709.71C2811.96 4707.95 2814.02 4707.21 2816.37 4707.51Z" fill-rule="evenodd"/>
<path clip-path="url(#TextBounds_2)" d="M2918.34 4640.41C2920.4 4640.41 2922.16 4643.21 2923.64 4648.8C2929.52 4647.03 2933.64 4645.86 2936 4645.27C2938.06 4644.68 2939.53 4644.24 2940.41 4643.94C2943.06 4643.65 2944.68 4644.83 2945.26 4647.48C2944.09 4650.42 2941.44 4653.21 2937.32 4655.86C2935.85 4656.75 2934.52 4657.19 2933.35 4657.19C2932.46 4657.48 2932.32 4658.07 2932.91 4658.95C2933.49 4659.54 2933.79 4661.9 2933.79 4666.01C2935.55 4666.01 2937.32 4665.28 2939.09 4663.81C2941.73 4664.98 2942.62 4666.31 2941.73 4667.78C2941.15 4668.37 2940.26 4669.1 2939.09 4669.99C2936.44 4672.05 2934.52 4673.67 2933.35 4674.84C2933.35 4676.31 2933.35 4677.93 2933.35 4679.7C2934.52 4679.7 2936.14 4679.7 2938.2 4679.7C2938.79 4679.7 2938.94 4680.29 2938.64 4681.46C2938.64 4682.94 2936.73 4685 2932.91 4687.64C2932.91 4688.82 2932.76 4690.73 2932.46 4693.38C2932.46 4696.03 2932.46 4697.8 2932.46 4698.68C2943.06 4696.03 2949.97 4694.56 2953.21 4694.26C2954.09 4693.97 2954.39 4693.68 2954.09 4693.38C2954.09 4693.09 2953.65 4692.79 2952.77 4692.5C2951.3 4691.03 2952.62 4690.59 2956.74 4691.18C2958.21 4692.06 2960.57 4692.5 2963.8 4692.5C2965.57 4692.79 2966.16 4693.68 2965.57 4695.15C2964.98 4696.32 2963.66 4697.06 2961.6 4697.35C2958.36 4697.94 2950.56 4699.71 2938.2 4702.65C2936.73 4702.95 2935.7 4703.24 2935.11 4703.53C2933.05 4703.83 2932.17 4704.71 2932.46 4706.18C2932.46 4720.01 2931.29 4731.05 2928.93 4739.29C2928.34 4739.88 2927.61 4739.58 2926.73 4738.41C2926.73 4737.82 2926.73 4735.17 2926.73 4730.46C2927.02 4718.69 2927.17 4710.45 2927.17 4705.74C2919.52 4707.8 2914.22 4709.42 2911.28 4710.6C2903.92 4712.66 2899.06 4712.95 2896.71 4711.48C2896.12 4710.89 2895.83 4710.45 2895.83 4710.16C2896.12 4709.57 2896.71 4709.27 2897.59 4709.27C2898.77 4709.27 2899.65 4709.13 2900.24 4708.83C2910.84 4705.01 2919.96 4702.21 2927.61 4700.44C2927.61 4696.62 2927.61 4693.68 2927.61 4691.62C2927.9 4691.03 2927.61 4690.73 2926.73 4690.73C2923.49 4692.2 2918.49 4695.59 2911.72 4700.89C2910.84 4701.18 2910.69 4701.03 2911.28 4700.44C2914.81 4696.91 2919.96 4692.5 2926.73 4687.2C2927.31 4686.61 2927.31 4686.47 2926.73 4686.76C2922.02 4688.53 2918.93 4690.15 2917.46 4691.62C2916.57 4691.91 2915.98 4691.91 2915.69 4691.62C2915.69 4686.32 2915.98 4683.97 2916.57 4684.55C2917.46 4684.85 2918.34 4684.41 2919.22 4683.23C2919.81 4682.35 2921.72 4680.43 2924.96 4677.49C2926.43 4676.31 2927.61 4675.28 2928.49 4674.4C2928.49 4673.52 2928.49 4672.78 2928.49 4672.19C2923.49 4674.55 2919.96 4676.02 2917.9 4676.61C2917.31 4676.9 2916.87 4676.76 2916.57 4676.17C2916.87 4676.17 2916.87 4676.02 2916.57 4675.73C2916.57 4673.37 2916.87 4671.75 2917.46 4670.87C2920.99 4667.34 2924.52 4662.78 2928.05 4657.19C2925.99 4658.07 2922.61 4659.69 2917.9 4662.04C2914.66 4663.22 2912.9 4662.78 2912.6 4660.72C2912.6 4655.72 2913.63 4650.86 2915.69 4646.15C2917.16 4644.68 2918.04 4642.77 2918.34 4640.41ZM2929.37 4660.72C2929.08 4660.72 2928.79 4660.72 2928.49 4660.72C2923.78 4664.84 2920.99 4668.07 2920.1 4670.43C2919.81 4671.02 2919.96 4671.31 2920.55 4671.31C2923.19 4670.72 2926.14 4669.69 2929.37 4668.22C2929.37 4665.57 2929.37 4663.07 2929.37 4660.72ZM2928.49 4680.58C2928.2 4679.99 2927.31 4680.58 2925.84 4682.35C2926.73 4682.35 2927.46 4682.05 2928.05 4681.46C2928.34 4681.17 2928.49 4680.88 2928.49 4680.58Z" fill-rule="evenodd"/>
</g>
<g opacity="1">
<path d="M2717.84 4756.77C2715.02 4768.05 2723.05 4781.03 2704.61 4790.08C2713.94 4793.35 2713.07 4802.14 2726.3 4803.19C2761.45 4807.65 2795.3 4800.17 2829.58 4798.47C2842.38 4798.47 2851.27 4801.48 2862.55 4801.35C2902.04 4801.35 2941.53 4802.27 2981.01 4803.19C2996.46 4802.13 3011.3 4807.14 3017.9 4815.65C3021.36 4819.4 3019.47 4824.14 3013.56 4826.53C2999.3 4828.38 2984.75 4829.31 2970.17 4829.28C2931.51 4827.97 2892.75 4827.97 2854.09 4829.28C2811.42 4830.23 2768.69 4829.13 2726.3 4826C2718.58 4825.48 2710.77 4825.88 2703.31 4827.18C2681.61 4830.2 2675.32 4823.64 2674.67 4812.24C2672.71 4770.8 2664.25 4728.84 2678.14 4687.8C2680.53 4680.98 2670.33 4677.7 2669.24 4672.06C2673.8 4633.51 2671.63 4594.83 2672.28 4556.27C2675.37 4539.71 2673.31 4522.94 2666.21 4506.84L2666.21 4493.73C2675.44 4485.18 2679.93 4475.07 2679.01 4464.88C2674.88 4436.03 2701.35 4425.54 2749.3 4434.59C2755.89 4439.41 2757.33 4446.09 2752.99 4451.76C2746.98 4454.49 2740.42 4456.73 2733.46 4458.45C2719.14 4460.29 2720.01 4465.01 2722.62 4471.56C2728.87 4481 2728.08 4491.61 2720.45 4500.68L2719.14 4501.99C2710.25 4509.33 2749.3 4501.99 2727.82 4511.56C2718.59 4514.52 2715.01 4521.42 2719.79 4527.03C2723.38 4533.32 2723.38 4540.15 2719.79 4546.44C2719.79 4547.36 2719.79 4548.93 2719.79 4549.45C2741.49 4560.99 2722.83 4574.76 2725.65 4587.35C2728.91 4602.04 2721.31 4617.12 2728.91 4631.54C2731.21 4635.86 2730.74 4640.54 2727.61 4644.65C2725.65 4647.93 2720.01 4651.6 2721.1 4653.7C2729.12 4673.11 2708.95 4691.86 2721.1 4712.45C2726.74 4722.02 2718.93 4737.23 2717.84 4749.95C2715.89 4752.44 2711.55 4754.8 2717.84 4756.77Z" fill="#7e201f" fill-rule="evenodd" opacity="1" stroke="none"/>
<path d="M3022.24 4832.04C3025.71 4825.48 3015.94 4826.92 3011.17 4825.22C3016.41 4823.4 3019.06 4819.72 3017.68 4816.17C3023.76 4820.89 3033.3 4824.82 3027.44 4832.04L3022.24 4832.04Z" fill="#bc8c8d" fill-rule="evenodd" opacity="1" stroke="none"/>
<path d="M2991.65 4429.21L2991.65 4425.54L3001.84 4425.54L3013.34 4431.57C3002.71 4440.09 2996.64 4437.08 2991.65 4429.21Z" fill="#a56463" fill-rule="evenodd" opacity="1" stroke="none"/>
<path d="M3073.87 4687.8C3068.29 4687.78 3062.92 4686.47 3058.9 4684.12C3059.12 4683.43 3059.12 4682.72 3058.9 4682.03C3063.68 4679.14 3068.67 4680.19 3073.87 4682.03L3073.87 4687.8Z" fill="#ae7171" fill-rule="evenodd" opacity="1" stroke="none"/>
<path d="M2991.65 4429.21C2993.11 4431.84 2996.83 4433.77 3001.34 4434.26C3005.85 4434.76 3010.45 4433.72 3013.34 4431.57C3018.55 4431.57 3023.54 4432.62 3028.53 4432.75C3060.2 4434.32 3063.68 4436.55 3056.73 4455.83C3051.33 4465.95 3051.94 4476.9 3058.47 4486.78C3067.72 4499.14 3069.26 4513.11 3062.81 4526.11C3055.98 4540.29 3054.57 4555.22 3058.69 4569.78C3063.76 4583.18 3060.19 4597.25 3048.71 4609.12C3049.45 4610.39 3049.45 4611.78 3048.71 4613.05C3047.05 4613.97 3044.51 4613.97 3042.85 4613.05C3024.19 4609.38 3024.84 4600.86 3027.66 4591.68C3029.44 4590.02 3031.81 4588.64 3034.6 4587.61C3042.85 4583.94 3039.81 4579.22 3037.86 4574.5C3035.9 4569.78 3037.86 4565.19 3037.86 4560.6C3038.17 4558.02 3036.08 4555.54 3032.43 4554.18C3026.58 4552.08 3023.1 4564.93 3017.25 4554.18C3014.43 4549.19 3023.76 4546.57 3023.32 4542.9C3023.32 4532.28 3039.38 4521.79 3018.33 4510.77C3003.36 4502.9 3010.95 4495.56 3033.08 4493.73C3033.08 4490.32 3038.94 4489.27 3041.55 4486.91C3040.03 4485.99 3038.07 4483.89 3037.21 4484.02C3007.92 4488.74 3007.48 4476.55 3005.96 4464.75C3011.17 4462.91 3009 4461.21 3005.96 4459.76C3000.54 4454.39 2992.73 4458.85 2986 4458.06C2967.56 4458.06 2949.34 4456.62 2930.68 4456.35C2924.39 4456.35 2924.6 4454.12 2924.39 4451.5C2924.17 4448.88 2927.21 4445.47 2920.05 4446.52C2917.44 4446.52 2916.14 4450.72 2914.41 4453.08C2913.36 4454.95 2910.97 4456.45 2907.89 4457.13C2904.81 4457.82 2901.39 4457.63 2898.57 4456.62L2805.71 4456.62C2798.99 4458.71 2790.52 4455.17 2784.01 4459.24C2771.7 4461.27 2758.62 4458.25 2751.69 4451.76C2748.88 4447.25 2748.06 4442.37 2749.3 4437.6C2761.23 4439.18 2766.66 4435.11 2769.48 4428.82C2826.48 4436.18 2884.86 4438.87 2943.05 4436.82C2958.45 4436.42 2978.84 4438.65 2991.65 4429.21Z" fill="#7f221f" fill-rule="evenodd" opacity="1" stroke="none"/>
<path d="M3048.05 4613.05L3048.05 4609.12C3059.99 4612.79 3059.55 4619.08 3057.17 4625.64C3056.07 4628.82 3052.28 4631.41 3047.19 4632.46L3037.42 4632.46C3034.58 4630.97 3033.54 4628.57 3034.82 4626.43C3040.12 4622.31 3044.56 4617.82 3048.05 4613.05Z" fill="#7e201e" fill-rule="evenodd" opacity="1" stroke="none"/>
<path d="M3046.1 4705.63C3051.96 4706.4 3056.34 4709.36 3056.95 4712.97C3056.95 4715.99 3053.91 4720.71 3050.87 4719.92C3046.11 4718.01 3042.65 4715.12 3041.11 4711.79C3039.8 4709.26 3041.99 4706.55 3046.1 4705.63Z" fill="#ebdddc" fill-rule="evenodd" opacity="1" stroke="none"/>
<path d="M2985.79 4458.85C2995.33 4451.37 3003.14 4449.54 3007.48 4461.07C3009.38 4462.29 3009.38 4464.19 3007.48 4465.4C3002.28 4460.03 2985.35 4469.6 2985.79 4458.85Z" fill="#d0aead" fill-rule="evenodd" opacity="1" stroke="none"/>
<path d="M3037.64 4644.52L3043.28 4656.98C3030.05 4659.21 3030.26 4652.52 3028.53 4648.06C3026.79 4643.61 3032.22 4643.34 3037.64 4644.52Z" fill="#964b45" fill-rule="evenodd" opacity="1" stroke="none"/>
<path d="M3062.16 4746.54C3053.04 4743 3049.14 4739.98 3051.53 4735.39C3051.53 4734.74 3056.3 4733.82 3057.6 4734.35C3064.98 4736.97 3063.24 4741.03 3062.16 4746.54Z" fill="#d4b5b4" fill-rule="evenodd" opacity="1" stroke="none"/>
<path d="M3047.84 4632.46C3049.33 4629.41 3052.98 4626.91 3057.82 4625.64C3056.3 4629.57 3069.53 4638.75 3048.05 4635.34C3047.66 4634.4 3047.58 4633.42 3047.84 4632.46Z" fill="#9b524a" fill-rule="evenodd" opacity="1" stroke="none"/>
<path d="M3038.73 4625.9L3038.73 4619.48L3044.37 4613.05C3045.81 4612.99 3047.26 4612.99 3048.71 4613.05C3048.71 4618.43 3051.74 4624.33 3038.73 4625.9Z" fill="#9b524a" fill-rule="evenodd" opacity="1" stroke="none"/>
<path d="M3048.27 4656.98C3049.36 4653.7 3053.04 4652.78 3057.17 4653.96C3065.85 4656.32 3058.47 4659.73 3058.25 4662.75L3048.27 4656.98Z" fill="#9e5656" fill-rule="evenodd" opacity="1" stroke="none"/>
<path d="M3036.99 4579.88C3033.08 4583.68 3031.13 4587.48 3038.29 4591.02L3028.53 4591.68C3029.83 4587.35 3018.98 4579.75 3036.99 4579.88Z" fill="#a56260" fill-rule="evenodd" opacity="1" stroke="none"/>
<path d="M3041.98 4487.69C3041.33 4490.71 3038.12 4493.29 3033.52 4494.51C3021.37 4485.33 3038.51 4489.79 3041.98 4487.69Z" fill="#cda9a9" fill-rule="evenodd" opacity="1" stroke="none"/>
<path d="M2877.31 4704.58C2877.31 4711.27 2870.8 4713.1 2862.55 4712.84C2854.31 4712.58 2846.28 4715.86 2848.02 4708.51C2848.14 4703.02 2854.86 4698.4 2863.86 4697.63C2872.32 4697.11 2876.22 4700.12 2877.31 4704.58Z" fill="#efe3e2" fill-rule="evenodd" opacity="1" stroke="none"/>
<path d="M2871.88 4729.63C2868.2 4732.9 2865.59 4737.49 2856.7 4736.05C2847.8 4734.61 2839.77 4732.9 2841.73 4727.13C2843.68 4721.36 2852.79 4722.68 2859.73 4723.59C2866.68 4724.51 2872.53 4723.99 2871.88 4729.63Z" fill="#e9d8d7" fill-rule="evenodd" opacity="1" stroke="none"/>
</g>
</g>
</svg>
