<?xml version="1.0" encoding="utf-8"?>
<!-- Generator: Adobe Illustrator 16.0.0, SVG Export Plug-In . SVG Version: 6.00 Build 0)  -->
<!DOCTYPE svg PUBLIC "-//W3C//DTD SVG 1.1//EN" "http://www.w3.org/Graphics/SVG/1.1/DTD/svg11.dtd">
<svg version="1.1" id="图层_1" xmlns="http://www.w3.org/2000/svg" xmlns:xlink="http://www.w3.org/1999/xlink" x="0px" y="0px"
	 width="960px" height="540px" viewBox="0 0 960 540" enable-background="new 0 0 960 540" xml:space="preserve">
<g id="组_766">
	<path id="路径_1806" opacity="0.2" fill="#69BAF9" enable-background="new    " d="M820,509.85c0-187.776-152.223-340-340-340
		c-187.777,0-340,152.223-340,340"/>
	<path id="路径_1807" opacity="0.5" fill="#69BAF9" enable-background="new    " d="M727.618,509.85
		c0-136.812-110.908-247.72-247.719-247.72c-136.812,0-247.72,110.908-247.72,247.72"/>
	<path id="路径_1808" opacity="0.7" fill="#69BAF9" enable-background="new    " d="M635.6,509.85
		c0.219-85.755-69.122-155.45-154.878-155.668c-85.755-0.219-155.45,69.122-155.669,154.878c0,0.263,0,0.526,0,0.79"/>
</g>
<g id="组_764" transform="translate(-72.295)">
	<path fill="#3D3D63" d="M807.295,510h-264c-2.761,0-5-2.238-5-5s2.239-5,5-5h264c2.762,0,5,2.238,5,5S810.057,510,807.295,510z"/>
	<path fill="#3D3D63" d="M886.295,510h-58c-2.762,0-5-2.238-5-5s2.238-5,5-5h58c2.762,0,5,2.238,5,5S889.057,510,886.295,510z"/>
	<path fill="#3D3D63" d="M491.295,510h-60c-2.761,0-5-2.238-5-5s2.239-5,5-5h60c2.761,0,5,2.238,5,5S494.056,510,491.295,510z"/>
	<path fill="#3D3D63" d="M396.295,510h-178c-2.761,0-5-2.238-5-5s2.239-5,5-5h178c2.761,0,5,2.238,5,5S399.056,510,396.295,510z"/>
	<ellipse id="椭圆_336" fill="#3D3D63" cx="514.295" cy="505" rx="5" ry="4"/>
</g>
<g>
	<path id="路径_1912_1_" fill="#F4F1EC" d="M633.962,60.01c-44.739,0-264.886-0.188-264.886-0.188
		C348.047,59.822,331,76.869,331,97.898c0,0,0,0,0,0.001v336.023c-0.001,21.029,17.046,38.076,38.075,38.077c0,0,0,0,0.001,0
		h178.955c21.028-0.001,38.075-17.048,38.075-38.077V103.733"/>
	<path fill="#3D3D63" d="M548.031,481.999H369.076c-12.843-0.001-24.916-5.002-33.996-14.082S321,446.764,321,433.922V97.899
		c0-26.51,21.567-48.077,48.076-48.077c2.21,0.002,220.662,0.188,264.886,0.188v20c-44.231,0-262.693-0.186-264.894-0.188
		C353.595,69.822,341,82.417,341,97.898v336.024c0,7.5,2.92,14.551,8.223,19.854s12.353,8.224,19.853,8.224h178.956
		c15.48-0.001,28.075-12.596,28.075-28.077V103.733h20v330.189C596.106,460.431,574.54,481.998,548.031,481.999z"/>
</g>
<g id="矩形_1154" transform="translate(576 50)">
	<path fill="#D7DADD" d="M59.5,0L59.5,0C92.361,0,119,26.639,119,59.5v136.667C119,207.121,110.12,216,99.167,216H19.833
		C8.88,216,0,207.121,0,196.167V59.5C0,26.639,26.639,0,59.5,0z"/>
	<path fill="#3D3D63" d="M99.1,216H19.9C8.928,216,0,207.073,0,196.1V59.5C0,26.691,26.691,0,59.5,0S119,26.691,119,59.5v136.6
		C119,207.073,110.072,216,99.1,216z M20,196h79V59.5C99,37.72,81.28,20,59.5,20S20,37.72,20,59.5V196z"/>
</g>
<g>
	<path id="路径_1921_1_" fill="#9F9F9F" d="M469.714,126.709h75.601"/>
	<path fill="#3D3D63" d="M545.314,134.709h-75.601c-4.418,0-8-3.582-8-8s3.582-8,8-8h75.601c4.418,0,8,3.582,8,8
		S549.732,134.709,545.314,134.709z"/>
</g>
<g>
	<path id="路径_1924_1_" fill="#9F9F9F" d="M372.537,231h172.773"/>
	<path fill="#B6BDC6" d="M545.311,239H372.537c-4.418,0-8-3.582-8-8s3.582-8,8-8h172.773c4.418,0,8,3.582,8,8
		S549.729,239,545.311,239z"/>
</g>
<g>
	<path id="路径_1925_1_" fill="#9F9F9F" d="M372.537,310h172.773"/>
	<path fill="#B6BDC6" d="M545.311,318H372.537c-4.418,0-8-3.582-8-8s3.582-8,8-8h172.773c4.418,0,8,3.582,8,8
		S549.729,318,545.311,318z"/>
</g>
<g>
	<path id="路径_1922_1_" fill="#9F9F9F" d="M469.714,161.709h75.601"/>
	<path fill="#3D3D63" d="M545.314,169.709h-75.601c-4.418,0-8-3.582-8-8s3.582-8,8-8h75.601c4.418,0,8,3.582,8,8
		S549.732,169.709,545.314,169.709z"/>
</g>
<g>
	<path id="路径_1923_1_" fill="#9F9F9F" d="M372.537,266h172.773"/>
	<path fill="#B6BDC6" d="M545.311,274H372.537c-4.418,0-8-3.582-8-8s3.582-8,8-8h172.773c4.418,0,8,3.582,8,8
		S549.729,274,545.311,274z"/>
</g>
<g>
	<path id="路径_1926_1_" fill="#9F9F9F" d="M372.537,345h172.773"/>
	<path fill="#B6BDC6" d="M545.311,353H372.537c-4.418,0-8-3.582-8-8s3.582-8,8-8h172.773c4.418,0,8,3.582,8,8
		S549.729,353,545.311,353z"/>
</g>
<g id="椭圆_420" transform="translate(364 179) rotate(-90)">
	<circle fill="#FFFFFF" cx="38" cy="38" r="38"/>
	<path fill="#3D3D63" d="M0,38C0,17.047,17.047,0,38,0s38,17.047,38,38S58.953,76,38,76S0,58.953,0,38z M66,38
		c0-15.439-12.561-28-28-28S10,22.561,10,38s12.561,28,28,28S66,53.439,66,38z"/>
</g>
<g id="椭圆_421" transform="translate(386.579 124.556)">
	<ellipse fill="#FFFFFF" cx="15.695" cy="15.695" rx="15.695" ry="15.695"/>
	<path fill="#3D3D63" d="M15.695,31.39C7.041,31.39,0,24.349,0,15.695S7.041,0,15.695,0C24.349,0,31.39,7.041,31.39,15.695
		S24.349,31.39,15.695,31.39z M15.695,10C12.555,10,10,12.555,10,15.695s2.555,5.695,5.695,5.695c3.14,0,5.694-2.555,5.694-5.695
		S18.835,10,15.695,10z"/>
</g>
<g id="组_859" transform="translate(389.297 145.726) rotate(19)">
	<path fill="#3D3D63" d="M1.629,24.07c-0.51,0.176-1.057,0.271-1.627,0.271C-2.76,24.342-4.999,22.104-5,19.343
		C-5.002,14.186-3.406,9.251-0.384,5.072c3.81-5.27,9.444-8.74,15.864-9.773c6.42-1.032,12.858,0.498,18.127,4.308
		c2.238,1.618,2.74,4.744,1.122,6.982c-1.618,2.237-4.743,2.74-6.982,1.122c-3.105-2.245-6.898-3.146-10.681-2.538
		C13.284,5.78,9.965,7.826,7.72,10.931c-1.781,2.462-2.721,5.37-2.72,8.408C5.001,21.531,3.591,23.394,1.629,24.07z"/>
	<path fill="#3D3D63" d="M36.299,12.255c-1.972,0.679-4.24,0.069-5.586-1.674c-4.764-6.171-13.447-7.431-19.77-2.868
		C8.702,9.329,5.579,8.825,3.963,6.585C2.347,4.346,2.852,1.22,5.091-0.395c10.722-7.74,25.455-5.602,33.537,4.866
		c1.688,2.186,1.284,5.326-0.902,7.013C37.283,11.826,36.801,12.082,36.299,12.255z"/>
</g>
<g>
	<path id="路径_1914_1_" fill="#D7DADD" d="M446,322.1H302.012c-20.441,0-37.012,16.571-37.012,37.012v75.876
		c0,20.44,16.57,37.012,37.011,37.013c0.001,0,0.001,0,0.001,0H475.97"/>
	<path fill="#3D3D63" d="M475.97,482H302.012C276.088,481.999,255,460.909,255,434.987v-75.876
		c0-25.922,21.089-47.012,47.012-47.012H446v20H302.012c-14.895,0-27.012,12.117-27.012,27.012v75.876
		c0,14.895,12.117,27.012,27.011,27.013H475.97V482z"/>
</g>
<g>
	<path id="路径_1916_1_" fill="#D7DADD" d="M330,322.1h145.97c20.441,0,37.013,16.571,37.013,37.012v75.876"/>
	<path fill="#3D3D63" d="M522.982,434.987h-20v-75.876c0-14.895-12.118-27.012-27.013-27.012H330v-20h145.97
		c25.923,0,47.013,21.09,47.013,47.012V434.987z"/>
</g>
<rect id="矩形_1157" x="435" y="384" fill="#D7DADD" width="80" height="78"/>
<path fill="#3D3D63" d="M550.03,482c-25.923,0-47.013-21.09-47.013-47.012v-75.877h20v75.876c0,14.895,12.118,27.013,27.013,27.013
	V482z"/>
<g id="组_864" transform="translate(41)">
	<g id="矩形_1150" transform="translate(526 291)">
		<path fill="#F6716F" d="M25,0h112c13.807,0,25,11.193,25,25v60c0,13.807-11.193,25-25,25H25C11.193,110,0,98.807,0,85V25
			C0,11.193,11.193,0,25,0z"/>
		<path fill="#3D3D63" d="M137,110H25C11.215,110,0,98.785,0,85V25C0,11.215,11.215,0,25,0h112c13.785,0,25,11.215,25,25v60
			C162,98.785,150.785,110,137,110z M25,20c-2.757,0-5,2.243-5,5v60c0,2.757,2.243,5,5,5h112c2.757,0,5-2.243,5-5V25
			c0-2.757-2.243-5-5-5H25z"/>
	</g>
	<g id="组_860" transform="translate(0 -5)">
		<path fill="#FFFFFF" d="M597.83,376.004c-2.048,0-4.095-0.781-5.657-2.343l-16.9-16.9c-3.124-3.125-3.124-8.189,0-11.314
			c3.125-3.123,8.189-3.123,11.314,0l16.9,16.9c3.124,3.125,3.124,8.189,0,11.314C601.925,375.223,599.878,376.004,597.83,376.004z"
			/>
		<path fill="#FFFFFF" d="M597.967,376.137c-2.048,0-4.095-0.781-5.657-2.343c-3.124-3.125-3.124-8.189,0-11.314l34.272-34.272
			c3.125-3.123,8.189-3.123,11.314,0c3.124,3.125,3.124,8.189,0,11.314l-34.272,34.272
			C602.062,375.355,600.015,376.137,597.967,376.137z"/>
	</g>
</g>
<g id="组_816" transform="translate(177 68)">
	<g id="组_781" transform="translate(93.213 0)">
		<path fill="#FBE274" d="M32.692,20.346H0c-2.209,0-4-1.791-4-4s1.791-4,4-4h32.692c2.209,0,4,1.791,4,4
			S34.901,20.346,32.692,20.346z"/>
		<path fill="#FBE274" d="M16.346,36.692c-2.209,0-4-1.791-4-4V0c0-2.209,1.791-4,4-4s4,1.791,4,4v32.692
			C20.346,34.901,18.555,36.692,16.346,36.692z"/>
	</g>
	<g id="组_782" transform="translate(117.96 127.696)">
		<g id="组_775" transform="translate(0 0)">
			<g id="组_770" transform="translate(20.007 0)">
				<path fill="#FBE274" d="M0,44.014c-2.209,0-4-1.791-4-4v-7.322c0-2.209,1.791-4,4-4s4,1.791,4,4v7.322
					C4,42.223,2.209,44.014,0,44.014z"/>
				<path fill="#FBE274" d="M0,11.322c-2.209,0-4-1.791-4-4V0c0-2.209,1.791-4,4-4s4,1.791,4,4v7.322C4,9.531,2.209,11.322,0,11.322
					z"/>
			</g>
			<g id="组_771" transform="translate(40.014 20.007) rotate(90)">
				<path fill="#FBE274" d="M4,0v7.321c0,2.209-1.791,4-4,4s-4-1.791-4-4V0c0-2.209,1.791-4,4-4S4-2.209,4,0z"/>
				<path fill="#FBE274" d="M4,32.692v7.322c0,2.209-1.791,4-4,4s-4-1.791-4-4v-7.322c0-2.209,1.791-4,4-4S4,30.483,4,32.692z"/>
			</g>
			<g id="组_772" transform="translate(34.154 34.154) rotate(135)">
				<path fill="#FBE274" d="M2.828-2.829C3.552-2.105,4-1.105,4,0v7.322c0,2.209-1.791,4-4,4c-2.209-0.001-4-1.791-4-4V0
					c0-2.209,1.791-4,4-4C1.104-4,2.104-3.553,2.828-2.829z"/>
				<path fill="#FBE274" d="M2.829,29.864C3.553,30.588,4,31.588,4,32.692l-0.001,7.322c0,2.209-1.791,4-4,4
					c-2.209-0.001-4-1.792-4-4L-4,32.692c0-2.209,1.791-4,4-4C1.105,28.692,2.105,29.14,2.829,29.864z"/>
			</g>
			<g id="组_773" transform="translate(34.154 5.86) rotate(45)">
				<path fill="#FBE274" d="M2.829,42.842c-0.724,0.724-1.724,1.171-2.828,1.171c-2.209,0-4-1.791-4-4l0-7.321c0-2.21,1.791-4,4-4
					c2.209,0,4,1.791,4,4l0,7.321C4,41.118,3.553,42.118,2.829,42.842z"/>
				<path fill="#FBE274" d="M2.828,10.15C2.104,10.874,1.104,11.322,0,11.322c-2.209,0-4-1.791-4-4L-4,0c0-2.209,1.792-3.999,4-4
					c2.209,0,4,1.791,4,4l0,7.322C4,8.426,3.552,9.427,2.828,10.15z"/>
			</g>
		</g>
	</g>
	<g id="路径_1815" transform="translate(0 206.772)">
		<path fill="none" d="M16.95-0.001C7.589-0.001,0,7.589,0,16.951C0,26.311,7.589,33.9,16.95,33.9c9.361,0,16.95-7.589,16.95-16.949
			C33.9,7.589,26.311-0.001,16.95-0.001z"/>
		<path fill="#FBE274" d="M16.95,7.999c-4.935,0-8.95,4.016-8.95,8.95s4.015,8.95,8.95,8.95s8.95-4.016,8.95-8.95
			S21.885,7.999,16.95,7.999 M16.95-0.001c9.361,0,16.95,7.59,16.95,16.95S26.311,33.9,16.95,33.9S0,26.31,0,16.95
			S7.589-0.001,16.95-0.001z"/>
	</g>
	<g id="路径_1816" transform="translate(96.455 368.293)">
		<path fill="none" d="M14.127,0C6.325,0,0,6.325,0,14.127s6.325,14.127,14.127,14.127s14.127-6.325,14.127-14.127
			S21.929,0,14.127,0z"/>
		<path fill="#FBE274" d="M14.127,8C10.749,8,8,10.749,8,14.127c0,3.379,2.749,6.127,6.127,6.127s6.127-2.748,6.127-6.127
			C20.254,10.749,17.505,8,14.127,8 M14.127,0c7.802,0,14.127,6.325,14.127,14.127s-6.325,14.127-14.127,14.127S0,21.929,0,14.127
			S6.325,0,14.127,0z"/>
	</g>
	<g id="路径_1817" transform="translate(521.238 93.692)">
		<path fill="none" d="M20.356,0C9.114,0,0,9.114,0,20.356c0,11.243,9.113,20.356,20.355,20.356s20.356-9.113,20.356-20.356
			C40.712,9.114,31.598,0,20.356,0z"/>
		<path fill="#FBE274" d="M20.356,8C13.543,8,8,13.543,8,20.356s5.543,12.356,12.355,12.356c6.813,0,12.355-5.543,12.355-12.356
			S27.169,8,20.356,8 M20.356,0c11.242,0,20.355,9.114,20.355,20.356s-9.113,20.356-20.355,20.356S0,31.598,0,20.356
			S9.114,0,20.356,0z"/>
	</g>
	<g id="组_783" transform="translate(581.172 322.474)">
		<path fill="#FBE274" d="M24.703,17.301H0c-2.209,0-4-1.791-4-4s1.791-4,4-4h24.703c2.209,0,4,1.791,4,4
			S26.912,17.301,24.703,17.301z"/>
		<path fill="#FBE274" d="M12.352,28.703c-2.209,0-4-1.791-4-4V0.001c0-2.209,1.791-4,4-4s4,1.791,4,4v24.702
			C16.352,26.912,14.561,28.703,12.352,28.703z"/>
	</g>
</g>
<rect id="矩形_1211" x="596" y="219" fill="#B5C1CC" width="79" height="27"/>
</svg>
