<svg id="图层_1" data-name="图层 1" xmlns="http://www.w3.org/2000/svg" viewBox="0 0 144 144"><defs><style>.cls-1{fill:#666;}.cls-2{fill:#ccc;}.cls-3{fill:#999;}</style></defs><path class="cls-1" d="M138,98a2,2,0,0,1-2-2V74a14,14,0,0,0-28,0V96a2,2,0,0,1-4,0V74a18,18,0,0,1,36,0V96A2,2,0,0,1,138,98Z"/><path class="cls-1" d="M90,124a18,18,0,0,1-18-18V58a2,2,0,0,1,2-2h48a2,2,0,0,1,0,4,14,14,0,0,0-14,14v32A18,18,0,0,1,90,124ZM76,60v46a14,14,0,0,0,28,0V74a18,18,0,0,1,6.7-14Z"/><path class="cls-1" d="M90,124H22A18,18,0,0,1,4,106V34A10,10,0,0,1,14,24H66A10,10,0,0,1,76,34v72a14,14,0,0,0,14,14,2,2,0,0,1,0,4ZM14,28a6,6,0,0,0-6,6v72a14,14,0,0,0,14,14H78.7A18,18,0,0,1,72,106V34a6,6,0,0,0-6-6Z"/><path class="cls-2" d="M142,136h-4a2,2,0,0,1,0-4h4a2,2,0,0,1,0,4Z"/><path class="cls-2" d="M130,136H2a2,2,0,0,1,0-4H130a2,2,0,0,1,0,4Z"/><path class="cls-2" d="M122,144H42a2,2,0,0,1,0-4h80a2,2,0,0,1,0,4Z"/><path class="cls-2" d="M34,144H22a2,2,0,0,1,0-4H34a2,2,0,0,1,0,4Z"/><path class="cls-2" d="M129.88,102H129a1,1,0,0,1-1-1v-.88A2.07,2.07,0,0,0,126.34,98a2,2,0,0,0-2.34,2v1a1,1,0,0,1-1,1h-.88a2.07,2.07,0,0,0-2.09,1.66,2,2,0,0,0,2,2.34h1a1,1,0,0,1,1,1v.88a2.07,2.07,0,0,0,1.66,2.09,2,2,0,0,0,2.34-2v-1a1,1,0,0,1,1-1h1a2,2,0,0,0,2-2.34A2.07,2.07,0,0,0,129.88,102Z"/><path class="cls-2" d="M142.59,46.67H142a.67.67,0,0,1-.67-.67v-.59a1.39,1.39,0,0,0-1.1-1.39,1.34,1.34,0,0,0-1.56,1.31V46a.67.67,0,0,1-.67.67h-.59a1.39,1.39,0,0,0-1.39,1.1,1.34,1.34,0,0,0,1.31,1.56H138a.67.67,0,0,1,.67.67v.59a1.39,1.39,0,0,0,1.1,1.39,1.34,1.34,0,0,0,1.56-1.31V50a.67.67,0,0,1,.67-.67h.67A1.34,1.34,0,0,0,144,47.77,1.39,1.39,0,0,0,142.59,46.67Z"/><path class="cls-2" d="M128.59,2.67H128a.67.67,0,0,1-.67-.67V1.41A1.39,1.39,0,0,0,126.23,0a1.34,1.34,0,0,0-1.56,1.31V2a.67.67,0,0,1-.67.67h-.59A1.39,1.39,0,0,0,122,3.77a1.34,1.34,0,0,0,1.31,1.56H124a.67.67,0,0,1,.67.67v.59A1.39,1.39,0,0,0,125.77,8a1.34,1.34,0,0,0,1.56-1.31V6a.67.67,0,0,1,.67-.67h.67A1.34,1.34,0,0,0,130,3.77,1.39,1.39,0,0,0,128.59,2.67Z"/><path class="cls-2" d="M102.59,22.67H102a.67.67,0,0,1-.67-.67v-.59a1.39,1.39,0,0,0-1.1-1.39,1.34,1.34,0,0,0-1.56,1.31V22a.67.67,0,0,1-.67.67h-.59A1.39,1.39,0,0,0,96,23.77a1.34,1.34,0,0,0,1.31,1.56H98a.67.67,0,0,1,.67.67v.59A1.39,1.39,0,0,0,99.77,28a1.34,1.34,0,0,0,1.56-1.31V26a.67.67,0,0,1,.67-.67h.67A1.34,1.34,0,0,0,104,23.77,1.39,1.39,0,0,0,102.59,22.67Z"/><path class="cls-3" d="M24,20a2,2,0,0,1-2-2V10a2,2,0,0,1,4,0v8A2,2,0,0,1,24,20Z"/><path class="cls-3" d="M56,20a2,2,0,0,1-2-2V10a2,2,0,0,1,4,0v8A2,2,0,0,1,56,20Z"/><path class="cls-3" d="M40,48a10,10,0,0,1-9.67-7.5,2,2,0,1,1,3.87-1,6,6,0,0,0,11.6,0,2,2,0,1,1,3.87,1A10,10,0,0,1,40,48Z"/><path class="cls-3" d="M64,70H16a2,2,0,0,1,0-4H64a2,2,0,0,1,0,4Z"/><path class="cls-3" d="M64,86H16a2,2,0,0,1,0-4H64a2,2,0,0,1,0,4Z"/><path class="cls-3" d="M40,102H16a2,2,0,0,1,0-4H40a2,2,0,0,1,0,4Z"/></svg>