<svg height="100%" stroke-miterlimit="10" style="fill-rule:nonzero;clip-rule:evenodd;stroke-linecap:round;stroke-linejoin:round;" version="1.1" viewBox="0 0 4000 7000" width="100%" xml:space="preserve" xmlns="http://www.w3.org/2000/svg" xmlns:vectornator="http://vectornator.io" xmlns:xlink="http://www.w3.org/1999/xlink">
<defs>
<filter color-interpolation-filters="sRGB" filterUnits="userSpaceOnUse" height="6979.02" id="Filter" width="98.6893" x="26.3274" y="10.4612">
<feComponentTransfer in="SourceGraphic" result="Alpha">
<feFuncA slope="0.998077" type="linear"/>
</feComponentTransfer>
<feDropShadow dx="-0.000105711" dy="28.7791" flood-color="#000000" flood-opacity="0.333" in="Alpha" result="Shadow" stdDeviation="7.57326"/>
</filter>
<filter color-interpolation-filters="sRGB" filterUnits="userSpaceOnUse" height="149.501" id="Filter_2" width="3971.68" x="-7.12643" y="6840.58">
<feComponentTransfer in="SourceGraphic" result="Alpha">
<feFuncA slope="0.998077" type="linear"/>
</feComponentTransfer>
<feDropShadow dx="-0.000105711" dy="28.7791" flood-color="#000000" flood-opacity="0.333" in="Alpha" result="Shadow" stdDeviation="7.57326"/>
</filter>
<filter color-interpolation-filters="sRGB" filterUnits="userSpaceOnUse" height="7026.68" id="Filter_3" width="114.486" x="3829.54" y="-3.67635">
<feComponentTransfer in="SourceGraphic" result="Alpha">
<feFuncA slope="0.998077" type="linear"/>
</feComponentTransfer>
<feDropShadow dx="-0.000105711" dy="28.7791" flood-color="#000000" flood-opacity="0.333" in="Alpha" result="Shadow" stdDeviation="7.57326"/>
</filter>
<filter color-interpolation-filters="sRGB" filterUnits="userSpaceOnUse" height="130.51" id="Filter_4" width="3985.29" x="-7.66928" y="29.5334">
<feComponentTransfer in="SourceGraphic" result="Alpha">
<feFuncA slope="0.998077" type="linear"/>
</feComponentTransfer>
<feDropShadow dx="-0.000105711" dy="28.7791" flood-color="#000000" flood-opacity="0.333" in="Alpha" result="Shadow" stdDeviation="7.57326"/>
</filter>
<filter color-interpolation-filters="sRGB" filterUnits="userSpaceOnUse" height="133.854" id="Filter_5" width="120.221" x="238.178" y="884.856">
<feDropShadow dx="-0.000105711" dy="28.7791" flood-color="#000000" flood-opacity="0.333" in="SourceGraphic" result="Shadow" stdDeviation="7.57326"/>
</filter>
<filter color-interpolation-filters="sRGB" filterUnits="userSpaceOnUse" height="133.854" id="Filter_6" width="120.221" x="239.83" y="1996.86">
<feDropShadow dx="-0.000105711" dy="28.7791" flood-color="#000000" flood-opacity="0.333" in="SourceGraphic" result="Shadow" stdDeviation="7.57326"/>
</filter>
<filter color-interpolation-filters="sRGB" filterUnits="userSpaceOnUse" height="133.854" id="Filter_7" width="120.221" x="228.208" y="3111.96">
<feDropShadow dx="-0.000105711" dy="28.7791" flood-color="#000000" flood-opacity="0.333" in="SourceGraphic" result="Shadow" stdDeviation="7.57326"/>
</filter>
<filter color-interpolation-filters="sRGB" filterUnits="userSpaceOnUse" height="133.854" id="Filter_8" width="120.221" x="250.42" y="4052.08">
<feDropShadow dx="-0.000105711" dy="28.7791" flood-color="#000000" flood-opacity="0.333" in="SourceGraphic" result="Shadow" stdDeviation="7.57326"/>
</filter>
<filter color-interpolation-filters="sRGB" filterUnits="userSpaceOnUse" height="133.854" id="Filter_9" width="120.221" x="231.149" y="4948.52">
<feDropShadow dx="-0.000105711" dy="28.7791" flood-color="#000000" flood-opacity="0.333" in="SourceGraphic" result="Shadow" stdDeviation="7.57326"/>
</filter>
<filter color-interpolation-filters="sRGB" filterUnits="userSpaceOnUse" height="133.854" id="Filter_10" width="120.221" x="297.823" y="5950.49">
<feDropShadow dx="-0.000105711" dy="28.7791" flood-color="#000000" flood-opacity="0.333" in="SourceGraphic" result="Shadow" stdDeviation="7.57326"/>
</filter>
</defs>
<clipPath id="ArtboardFrame">
<rect height="7000" width="4000" x="0" y="0"/>
</clipPath>
<g clip-path="url(#ArtboardFrame)" id="图层-1" vectornator:layerName="图层 1">
<g filter="url(#Filter)" vectornator:blendMode="darken" vectornator:shadowAngle="1.5708" vectornator:shadowColor="#000000" vectornator:shadowOffset="28.7791" vectornator:shadowOpacity="0.333" vectornator:shadowRadius="15.1465">
<path d="M75.7776 6877.37C75.7674 6548.05 75.5668 78.6557 75.5668 78.6557" fill="none" stroke="#e5b886" stroke-linecap="square" stroke-linejoin="miter" stroke-width="9.64233"/>
<g fill="#e5b886" stroke="none">
<path d="M78.9759 82.0646L106.248 54.7912L109.657 51.382L106.248 47.973L78.974 20.7012L75.5649 17.2923L72.1559 20.7014L44.8841 47.9749L41.4751 51.3841L44.8843 54.7931L72.1578 82.0648L75.567 85.4738L78.9759 82.0646ZM72.1576 75.2467L78.9757 75.2465L51.7023 47.9747L51.7025 54.7928L78.9742 27.5194L72.1561 27.5196L99.4296 54.7914L99.4293 47.9732L72.1576 75.2467Z" fill="#e5b886"/>
<path d="M72.3685 6873.96L45.0967 6901.23L41.6877 6904.64L45.0969 6908.05L72.3704 6935.32L75.7795 6938.73L79.1885 6935.32L106.46 6908.05L109.869 6904.64L106.46 6901.23L79.1866 6873.96L75.7774 6870.55L72.3685 6873.96ZM79.1868 6880.78L72.3687 6880.78L99.6421 6908.05L99.6419 6901.23L72.3701 6928.51L79.1883 6928.51L51.9148 6901.23L51.915 6908.05L79.1868 6880.78Z" fill="#e5b886"/>
</g>
</g>
<g filter="url(#Filter_2)" vectornator:blendMode="darken" vectornator:shadowAngle="1.5708" vectornator:shadowColor="#000000" vectornator:shadowOffset="28.7791" vectornator:shadowOpacity="0.333" vectornator:shadowRadius="15.1465">
<path d="M74.2538 6876.48C551.828 6880.71 3671.65 6908.38 3883.17 6910.26" fill="none" stroke="#e5b886" stroke-linecap="butt" stroke-linejoin="miter" stroke-width="10"/>
<g fill="#e5b886" stroke="none">
<path d="M3877.1 6913.74L3905.13 6942.28L3908.64 6945.84L3912.2 6942.34L3940.74 6914.31L3944.31 6910.8L3940.8 6907.24L3912.77 6878.7L3909.26 6875.13L3905.7 6878.64L3877.16 6906.67L3873.6 6910.17L3877.1 6913.74ZM3884.23 6906.73L3884.17 6913.8L3912.71 6885.77L3905.64 6885.71L3933.67 6914.24L3933.73 6907.17L3905.2 6935.2L3912.27 6935.27L3884.23 6906.73Z" fill="#e5b886"/>
<path d="M80.3205 6873L52.2885 6844.46L48.7844 6840.89L45.2177 6844.4L16.6834 6872.43L13.1166 6875.93L16.6206 6879.5L44.6526 6908.04L48.1566 6911.6L51.7234 6908.1L80.2577 6880.07L83.8245 6876.56L80.3205 6873ZM73.1869 6880L73.2497 6872.93L44.7154 6900.96L51.7862 6901.03L23.7542 6872.49L23.6914 6879.56L52.2257 6851.53L45.1549 6851.47L73.1869 6880Z" fill="#e5b886"/>
</g>
</g>
<g filter="url(#Filter_3)" vectornator:blendMode="darken" vectornator:shadowAngle="1.5708" vectornator:shadowColor="#000000" vectornator:shadowOffset="28.7791" vectornator:shadowOpacity="0.333" vectornator:shadowRadius="15.1465">
<path d="M3880.17 6910.38C3881.48 6233.63 3892.81 374.545 3893.4 65.1403" fill="none" stroke="#e5b886" stroke-linecap="round" stroke-linejoin="round" stroke-width="10"/>
<g fill="#e5b886" stroke="none">
<path d="M3896.93 68.6826L3925.27 40.4532L3928.81 36.9246L3925.28 33.3822L3897.06 5.04314L3893.53 1.50077L3889.98 5.02944L3861.65 33.2588L3858.1 36.7875L3861.63 40.3299L3889.86 68.6689L3893.39 72.2113L3896.93 68.6826ZM3889.87 61.5979L3896.95 61.6116L3868.72 33.2726L3868.7 40.3436L3897.04 12.1142L3889.97 12.1005L3918.2 40.4395L3918.21 33.3685L3889.87 61.5979Z" fill="#e5b886"/>
<path d="M3876.64 6906.84L3848.3 6935.07L3844.76 6938.6L3848.29 6942.14L3876.52 6970.48L3880.04 6974.02L3883.59 6970.49L3911.93 6942.26L3915.47 6938.74L3911.94 6935.19L3883.71 6906.85L3880.18 6903.31L3876.64 6906.84ZM3883.7 6913.93L3876.62 6913.91L3904.85 6942.25L3904.87 6935.18L3876.53 6963.41L3883.6 6963.42L3855.37 6935.08L3855.36 6942.16L3883.7 6913.93Z" fill="#e5b886"/>
</g>
</g>
<g filter="url(#Filter_4)" vectornator:blendMode="darken" vectornator:shadowAngle="1.5708" vectornator:shadowColor="#000000" vectornator:shadowOffset="28.7791" vectornator:shadowOpacity="0.333" vectornator:shadowRadius="15.1465">
<path d="M3893.76 65.1446C3653.76 66.1104 76.2152 80.507 76.2152 80.507" fill="none" stroke="#e5b886" stroke-linecap="round" stroke-linejoin="round" stroke-width="10"/>
<g fill="#e5b886" stroke="none">
<path d="M79.7365 76.9573L51.3386 48.7871L47.7889 45.2658L44.2676 48.8155L16.0974 77.2134L12.5761 80.7631L16.1258 84.2844L44.5237 112.455L48.0734 115.976L51.5947 112.426L79.7649 84.0283L83.2862 80.4786L79.7365 76.9573ZM72.6939 84.0568L72.6655 76.9857L44.4953 105.384L51.5663 105.355L23.1684 77.1849L23.1969 84.2559L51.3671 55.8581L44.2961 55.8865L72.6939 84.0568Z" fill="#e5b886"/>
<path d="M3890.24 68.6943L3918.64 96.8645L3922.19 100.386L3925.71 96.8361L3953.88 68.4382L3957.4 64.8885L3953.85 61.3672L3925.45 33.197L3921.9 29.6757L3918.38 33.2254L3890.21 61.6233L3886.69 65.173L3890.24 68.6943ZM3897.28 61.5948L3897.31 68.6658L3925.48 40.268L3918.41 40.2964L3946.81 68.4667L3946.78 61.3957L3918.61 89.7935L3925.68 89.7651L3897.28 61.5948Z" fill="#e5b886"/>
</g>
</g>
<path d="M321.75 903.781C208.903 911.429 44.8537 927.303-54.625 936.344L-40.9688 960.906C59.3837 964.655 212.735 949.587 323.25 939.969C323.084 936.217 323.062 934.045 322.844 929.562C322.306 918.503 321.969 910.582 321.75 903.781ZM311.188 2020.56C308.007 2020.93 304.809 2021.3 301.156 2021.34C215.914 2022.02 38.8316 2019.18-46.4375 2023.19C-46.0894 2034.58-38.0805 2043.68-38.2188 2055.97C48.7607 2053.31 219.328 2061.9 306.094 2056.44C307.885 2056.33 309.348 2056.41 311 2056.38C311.14 2051.86 311.302 2047.48 311.312 2042.28C311.322 2037.3 311.318 2033.24 311.219 2024.31C311.198 2022.42 311.203 2022.04 311.188 2020.56ZM302.125 4971.88C293.412 4974.33 283.181 4975.3 270.969 4974.69C205.13 4971.61 139.117 4984.33 73.1875 4990.91C55.7831 4992.84-86.4128 4996.85-81.5938 5041.09C3.20457 5034.29 205.733 5016.68 290.312 5006.91C294.483 5006.43 298.287 5006.27 301.875 5006.31C301.966 4999.3 302.046 4991.37 302.062 4990.06C302.151 4983.15 302.174 4977.31 302.125 4971.88ZM280.281 5986.31C277.082 5986.67 273.768 5986.9 270.188 5986.94C185.068 5987.43 12.3852 6004.95-72.75 6009.12C-73.1984 6019.66-74.5862 6024.49-74.9062 6035.03C-0.37073 6032.75 162.867 6025.46 237.531 6023.19C255.855 6022.63 269.44 6021.72 280.875 6021.31C280.796 6018.15 280.738 6015.24 280.469 6010.5C280.43 6009.82 280.428 6009.51 280.406 6009.12C279.845 5999.18 279.722 5993.75 280.125 5987.72C280.157 5987.23 280.241 5986.79 280.281 5986.31Z" fill="#fccd8b" fill-rule="evenodd" opacity="1" stroke="none"/>
<path d="M336.182 4070.74C329.591 4071.14 323.002 4071.32 316.369 4071.21C291.386 4070.79 266.246 4068.57 242.15 4078.28L-71.7558 4099.06C-71.464 4150.62 106.104 4122.45 123.557 4122.09C191.32 4120.89 258.975 4115.85 326.588 4113.96C328.952 4113.79 331.355 4113.45 333.775 4113.06C334.49 4104.4 335.025 4092.27 335.025 4092.24C335.277 4082.55 335.663 4076.32 336.182 4070.74Z" fill="#f8ca8a" fill-rule="evenodd" opacity="1" stroke="none"/>
<path d="M305.43 3128.35C302.505 3128.64 299.454 3128.85 296.18 3128.94C221.159 3131.48-26.3804 3141.69-99.6638 3162.13C-19.4366 3192.06 189.844 3170.33 305.305 3176.82C305.383 3173.41 305.343 3171.32 305.524 3165.94C305.677 3161.38 305.734 3159.41 305.805 3156.91C306.135 3145.25 305.955 3136.59 305.43 3128.35Z" fill="#e5b886" fill-rule="evenodd" opacity="1" stroke="none"/>
<path d="M372.65 5981.74C369.452 5982.1 366.137 5982.33 362.557 5982.37C277.437 5982.86 104.755 6000.38 19.6192 6004.56C19.1708 6015.09 17.7831 6019.92 17.4629 6030.46C91.9984 6028.18 255.237 6020.89 329.9 6018.62C348.224 6018.06 361.808 6017.15 373.244 6016.74C373.165 6013.58 373.107 6010.66 372.838 6005.93C372.799 6005.25 372.797 6004.93 372.775 6004.56C372.214 5994.61 372.091 5989.18 372.494 5983.15C372.527 5982.66 372.611 5982.23 372.65 5981.74Z" fill="#fccd8b" fill-rule="evenodd" opacity="1" stroke="none"/>
<g filter="url(#Filter_5)" vectornator:shadowAngle="1.5708" vectornator:shadowColor="#000000" vectornator:shadowOffset="28.7791" vectornator:shadowOpacity="0.333" vectornator:shadowRadius="15.1465">
<path d="M299.469 894.219C297.499 894.288 295.512 894.524 293.531 894.938C290.15 895.643 286.867 896.859 283.844 898.531C275.626 903.076 269.494 911.007 267.406 920.188C266.931 922.278 266.641 924.419 266.594 926.562C266.586 926.921 266.59 927.297 266.594 927.656C266.598 928.02 266.586 927.652 266.688 929.719C266.664 931.189 267.234 932.485 268.031 933.594C268.076 934.054 268.097 934.512 268.156 934.969C268.462 937.317 269.046 939.617 269.75 941.875C273.246 953.08 281.644 963.922 293.156 967.5C296.98 968.688 300.946 969.115 304.938 968.781C308.845 968.454 312.751 967.357 316.281 965.656C320.513 963.617 324.45 960.818 327.656 957.375C338.457 945.778 340.41 927.679 333 913.812C326.38 901.424 313.26 893.733 299.469 894.219ZM296.719 915.188C303.537 915.661 309.693 920.943 309.312 928.281C309.254 929.417 309.046 930.524 308.656 931.594C308.037 933.295 307.037 934.716 305.812 936.031C305.1 936.796 304.347 937.57 303.5 938.188C302.134 939.184 300.553 939.907 299.031 940.625C294.829 942.607 290.676 943.787 286.156 941.969C282.708 940.581 280.231 937.273 279.281 933.75C279.196 933.432 279.159 933.101 279.094 932.781C279.542 931.91 279.858 930.984 279.875 929.938C279.972 929.195 279.804 929.451 279.969 929.188C280.079 929.011 280.051 928.767 280.094 928.562C280.174 928.178 280.269 927.722 280.375 927.344C280.695 926.2 281.142 925.086 281.688 924.031C284.07 919.422 288.576 916 293.75 915.281C294.733 915.145 295.745 915.12 296.719 915.188Z" fill="#f9f6ef" stroke="none"/>
</g>
<g filter="url(#Filter_6)" vectornator:shadowAngle="1.5708" vectornator:shadowColor="#000000" vectornator:shadowOffset="28.7791" vectornator:shadowOpacity="0.333" vectornator:shadowRadius="15.1465">
<path d="M301.125 2006.22C299.155 2006.29 297.168 2006.52 295.188 2006.94C291.806 2007.64 288.523 2008.86 285.5 2010.53C277.282 2015.08 271.119 2023.04 269.031 2032.22C268.556 2034.31 268.297 2036.45 268.25 2038.59C268.242 2038.95 268.246 2039.3 268.25 2039.66C268.254 2040.02 268.243 2039.65 268.344 2041.72C268.32 2043.19 268.891 2044.48 269.688 2045.59C269.732 2046.05 269.753 2046.51 269.812 2046.97C270.118 2049.32 270.671 2051.65 271.375 2053.91C274.871 2065.11 283.3 2075.92 294.812 2079.5C298.637 2080.69 302.603 2081.12 306.594 2080.78C310.502 2080.45 314.376 2079.39 317.906 2077.69C322.138 2075.65 326.106 2072.85 329.312 2069.41C340.114 2057.81 342.066 2039.68 334.656 2025.81C328.036 2013.42 314.916 2005.73 301.125 2006.22ZM298.344 2027.19C305.162 2027.66 311.349 2032.94 310.969 2040.28C310.91 2041.42 310.702 2042.55 310.312 2043.62C309.693 2045.33 308.693 2046.72 307.469 2048.03C306.757 2048.8 306.003 2049.57 305.156 2050.19C303.79 2051.18 302.21 2051.94 300.688 2052.66C296.486 2054.64 292.332 2055.79 287.812 2053.97C284.364 2052.58 281.887 2049.27 280.938 2045.75C280.852 2045.43 280.816 2045.1 280.75 2044.78C281.192 2043.91 281.515 2042.98 281.531 2041.94C281.629 2041.19 281.461 2041.45 281.625 2041.19C281.735 2041.01 281.707 2040.77 281.75 2040.56C281.83 2040.18 281.925 2039.75 282.031 2039.38C282.351 2038.23 282.798 2037.12 283.344 2036.06C285.726 2031.45 290.232 2028.03 295.406 2027.31C296.389 2027.18 297.37 2027.12 298.344 2027.19Z" fill="#f9f6ef" stroke="none"/>
</g>
<g filter="url(#Filter_7)" vectornator:shadowAngle="1.5708" vectornator:shadowColor="#000000" vectornator:shadowOffset="28.7791" vectornator:shadowOpacity="0.333" vectornator:shadowRadius="15.1465">
<path d="M289.5 3121.31C287.53 3121.38 285.543 3121.62 283.562 3122.03C280.181 3122.74 276.898 3123.95 273.875 3125.62C265.657 3130.17 259.525 3138.13 257.438 3147.31C256.962 3149.4 256.672 3151.54 256.625 3153.69C256.617 3154.05 256.621 3154.39 256.625 3154.75C256.629 3155.11 256.618 3154.75 256.719 3156.81C256.695 3158.28 257.266 3159.58 258.062 3160.69C258.107 3161.15 258.128 3161.61 258.188 3162.06C258.493 3164.41 259.077 3166.74 259.781 3169C263.277 3180.21 271.675 3191.02 283.188 3194.59C287.012 3195.78 290.978 3196.21 294.969 3195.88C298.877 3195.55 302.782 3194.48 306.312 3192.78C310.544 3190.74 314.481 3187.94 317.688 3184.5C328.489 3172.9 330.441 3154.77 323.031 3140.91C316.411 3128.52 303.291 3120.83 289.5 3121.31ZM286.75 3142.28C293.568 3142.75 299.724 3148.04 299.344 3155.38C299.285 3156.51 299.077 3157.65 298.688 3158.72C298.068 3160.42 297.068 3161.81 295.844 3163.12C295.132 3163.89 294.378 3164.66 293.531 3165.28C292.165 3166.28 290.585 3167.03 289.062 3167.75C284.861 3169.73 280.707 3170.88 276.188 3169.06C272.739 3167.68 270.262 3164.37 269.312 3160.84C269.227 3160.53 269.191 3160.19 269.125 3159.88C269.567 3159.01 269.89 3158.07 269.906 3157.03C270.004 3156.29 269.836 3156.54 270 3156.28C270.11 3156.1 270.082 3155.86 270.125 3155.66C270.205 3155.27 270.3 3154.85 270.406 3154.47C270.726 3153.33 271.173 3152.21 271.719 3151.16C274.101 3146.55 278.607 3143.13 283.781 3142.41C284.764 3142.27 285.776 3142.21 286.75 3142.28Z" fill="#f9f6ef" stroke="none"/>
</g>
<g filter="url(#Filter_8)" vectornator:shadowAngle="1.5708" vectornator:shadowColor="#000000" vectornator:shadowOffset="28.7791" vectornator:shadowOpacity="0.333" vectornator:shadowRadius="15.1465">
<path d="M311.719 4061.44C309.749 4061.51 307.762 4061.74 305.781 4062.16C302.4 4062.86 299.117 4064.08 296.094 4065.75C287.876 4070.29 281.713 4078.26 279.625 4087.44C279.15 4089.53 278.89 4091.67 278.844 4093.81C278.836 4094.17 278.84 4094.52 278.844 4094.88C278.848 4095.24 278.836 4094.87 278.938 4096.94C278.914 4098.41 279.482 4099.7 280.281 4100.81C280.326 4101.27 280.347 4101.73 280.406 4102.19C280.712 4104.54 281.264 4106.87 281.969 4109.12C285.465 4120.33 293.894 4131.14 305.406 4134.72C309.23 4135.91 313.196 4136.33 317.188 4136C321.095 4135.67 324.969 4134.61 328.5 4132.91C332.732 4130.87 336.7 4128.07 339.906 4124.62C350.707 4113.03 352.66 4094.9 345.25 4081.03C338.63 4068.64 325.51 4060.95 311.719 4061.44ZM308.938 4082.41C315.755 4082.88 321.943 4088.16 321.562 4095.5C321.504 4096.64 321.296 4097.77 320.906 4098.84C320.287 4100.54 319.287 4101.93 318.062 4103.25C317.35 4104.01 316.597 4104.79 315.75 4105.41C314.384 4106.4 312.803 4107.16 311.281 4107.88C307.079 4109.86 302.926 4111.01 298.406 4109.19C294.958 4107.8 292.481 4104.49 291.531 4100.97C291.446 4100.65 291.409 4100.32 291.344 4100C291.785 4099.13 292.109 4098.19 292.125 4097.16C292.222 4096.41 292.054 4096.67 292.219 4096.41C292.329 4096.23 292.301 4095.99 292.344 4095.78C292.424 4095.4 292.519 4094.97 292.625 4094.59C292.945 4093.45 293.392 4092.34 293.938 4091.28C296.32 4086.67 300.826 4083.25 306 4082.53C306.983 4082.39 307.964 4082.34 308.938 4082.41Z" fill="#f9f6ef" stroke="none"/>
</g>
<g filter="url(#Filter_9)" vectornator:shadowAngle="1.5708" vectornator:shadowColor="#000000" vectornator:shadowOffset="28.7791" vectornator:shadowOpacity="0.333" vectornator:shadowRadius="15.1465">
<path d="M292.438 4957.88C290.467 4957.94 288.48 4958.18 286.5 4958.59C283.119 4959.3 279.835 4960.52 276.812 4962.19C268.595 4966.73 262.463 4974.7 260.375 4983.88C259.9 4985.97 259.609 4988.11 259.562 4990.25C259.555 4990.61 259.558 4990.95 259.562 4991.31C259.567 4991.68 259.586 4991.31 259.688 4993.38C259.664 4994.86 260.222 4996.17 261.031 4997.28C261.076 4997.74 261.097 4998.2 261.156 4998.66C261.462 5001 262.014 5003.3 262.719 5005.56C266.215 5016.77 274.612 5027.58 286.125 5031.16C289.949 5032.34 293.915 5032.77 297.906 5032.44C301.814 5032.11 305.719 5031.05 309.25 5029.34C313.482 5027.31 317.418 5024.51 320.625 5021.06C331.426 5009.47 333.379 4991.33 325.969 4977.47C319.348 4965.08 306.229 4957.39 292.438 4957.88ZM289.688 4978.84C296.505 4979.32 302.662 4984.6 302.281 4991.94C302.222 4993.07 302.014 4994.21 301.625 4995.28C301.006 4996.98 300.006 4998.37 298.781 4999.69C298.069 5000.45 297.347 5001.23 296.5 5001.84C295.134 5002.84 293.522 5003.59 292 5004.31C287.798 5006.29 283.645 5007.44 279.125 5005.62C275.676 5004.24 273.2 5000.93 272.25 4997.41C272.164 4997.09 272.128 4996.76 272.062 4996.44C272.504 4995.57 272.827 4994.63 272.844 4993.59C272.941 4992.85 272.773 4993.11 272.938 4992.84C273.048 4992.67 273.02 4992.45 273.062 4992.25C273.143 4991.87 273.238 4991.41 273.344 4991.03C273.664 4989.89 274.111 4988.77 274.656 4987.72C277.039 4983.11 281.544 4979.69 286.719 4978.97C287.702 4978.83 288.714 4978.78 289.688 4978.84Z" fill="#f9f6ef" stroke="none"/>
</g>
<g filter="url(#Filter_10)" vectornator:shadowAngle="1.5708" vectornator:shadowColor="#000000" vectornator:shadowOffset="28.7791" vectornator:shadowOpacity="0.333" vectornator:shadowRadius="15.1465">
<path d="M359.125 5959.84C357.155 5959.91 355.168 5960.15 353.188 5960.56C349.806 5961.27 346.523 5962.48 343.5 5964.16C335.282 5968.7 329.119 5976.66 327.031 5985.84C326.556 5987.93 326.297 5990.08 326.25 5992.22C326.242 5992.58 326.246 5992.92 326.25 5993.28C326.254 5993.64 326.243 5993.28 326.344 5995.34C326.32 5996.84 326.869 5998.16 327.688 5999.28C327.731 5999.73 327.755 6000.18 327.812 6000.62C328.118 6002.97 328.671 6005.27 329.375 6007.53C332.871 6018.74 341.3 6029.55 352.812 6033.12C356.637 6034.31 360.603 6034.74 364.594 6034.41C368.502 6034.08 372.375 6033.01 375.906 6031.31C380.138 6029.27 384.106 6026.47 387.312 6023.03C398.114 6011.43 400.066 5993.3 392.656 5979.44C386.036 5967.05 372.916 5959.36 359.125 5959.84ZM356.344 5980.84C363.162 5981.32 369.349 5986.57 368.969 5993.91C368.91 5995.04 368.702 5996.18 368.312 5997.25C367.693 5998.95 366.693 6000.34 365.469 6001.66C364.757 6002.42 364.003 6003.19 363.156 6003.81C361.79 6004.81 360.21 6005.56 358.688 6006.28C354.485 6008.26 350.332 6009.41 345.812 6007.59C342.364 6006.21 339.856 6002.9 338.906 5999.38C338.825 5999.08 338.813 5998.77 338.75 5998.47C339.206 5997.59 339.515 5996.62 339.531 5995.56C339.629 5994.82 339.46 5995.08 339.625 5994.81C339.735 5994.64 339.707 5994.42 339.75 5994.22C339.83 5993.83 339.925 5993.38 340.031 5993C340.351 5991.86 340.798 5990.74 341.344 5989.69C343.726 5985.08 348.232 5981.66 353.406 5980.94C354.389 5980.8 355.37 5980.78 356.344 5980.84Z" fill="#f9f6ef" stroke="none"/>
</g>
</g>
</svg>
