<svg height="100%" stroke-miterlimit="10" style="fill-rule:nonzero;clip-rule:evenodd;stroke-linecap:round;stroke-linejoin:round;" version="1.1" viewBox="0 0 1024 1024" width="100%" xml:space="preserve" xmlns="http://www.w3.org/2000/svg" xmlns:vectornator="http://vectornator.io" xmlns:xlink="http://www.w3.org/1999/xlink">
<defs/>
<clipPath id="ArtboardFrame">
<rect height="1024" width="1024" x="0" y="0"/>
</clipPath>
<g clip-path="url(#ArtboardFrame)" id="Untitled" vectornator:layerName="Untitled">
<path d="M638.494 753.179L638.494 912.481L1008.48 693.998L1008.48 534.696L823.488 294.408L638.494 753.179Z" fill="#cea167" fill-rule="evenodd" opacity="1" stroke="none"/>
<path d="M759.937 605.892L759.937 840.84L923.167 744.725L923.167 509.332L759.937 605.892Z" fill="#a37c4a" fill-rule="evenodd" opacity="1" stroke="none"/>
<path d="M759.937 605.892L759.937 637.485L923.167 540.925L923.167 509.332L759.937 605.892Z" fill="#7d5e37" fill-rule="evenodd" opacity="1" stroke="none"/>
<path d="M759.937 657.064L759.937 688.658L923.167 592.098L923.167 560.504L759.937 657.064Z" fill="#7d5e37" fill-rule="evenodd" opacity="1" stroke="none"/>
<path d="M759.937 708.237L759.937 739.83L923.167 643.27L923.167 612.122L759.937 708.237Z" fill="#7d5e37" fill-rule="evenodd" opacity="1" stroke="none"/>
<path d="M759.937 759.409L759.937 791.002L923.167 694.442L923.167 663.294L759.937 759.409Z" fill="#7d5e37" fill-rule="evenodd" opacity="1" stroke="none"/>
<path d="M759.937 810.581L759.937 840.84L923.167 744.725L923.167 714.466L759.937 810.581Z" fill="#7d5e37" fill-rule="evenodd" opacity="1" stroke="none"/>
<path d="M638.494 912.481L638.494 753.179L186.674 489.308L186.674 649.055L638.494 912.481Z" fill="#f7c687" fill-rule="evenodd" opacity="1" stroke="none"/>
<path d="M864.84 411.437L860.051 410.102C854.248 408.322 847.719 409.509 840.464 413.662L829.147 420.337C819.57 426.27 811.3 435.911 804.336 449.26C797.371 462.61 793.889 475.959 793.889 489.308C793.889 504.437 798.387 514.375 807.383 519.121C811.445 521.791 814.927 523.126 817.829 523.126L817.829 523.571C823.923 524.758 830.017 523.423 836.111 519.567L846.993 512.892C856.859 507.255 865.13 497.614 871.804 483.968C878.768 470.619 882.251 457.27 882.251 443.92C882.251 432.351 879.349 423.6 873.545 417.667C871.514 414.997 868.612 412.92 864.84 411.437Z" fill="#a37c4a" fill-rule="evenodd" opacity="1" stroke="none"/>
<path d="M800.853 492.423C800.853 505.476 804.336 514.672 811.3 520.011C817.974 525.351 826.245 525.203 836.111 519.567L846.993 512.892C856.859 507.255 865.13 497.614 871.804 483.968C878.768 470.619 882.251 457.27 882.251 443.92C882.251 430.868 878.768 421.672 871.804 416.332C865.13 410.992 856.859 411.14 846.993 416.777L836.111 423.451C826.245 429.088 817.974 438.581 811.3 451.93C804.336 465.576 800.853 479.074 800.853 492.423Z" fill="#7d5e37" fill-rule="evenodd" opacity="1" stroke="none"/>
<path d="M874.416 448.815C874.416 438.136 871.659 430.719 866.145 426.566C860.342 422.117 853.522 422.265 845.687 427.011L836.982 431.906C829.147 436.652 822.472 444.365 816.959 455.045C811.445 466.021 808.688 476.849 808.688 487.528C808.688 498.208 811.445 505.624 816.959 509.777C822.472 514.227 829.147 514.078 836.982 509.332L845.687 504.437C853.522 499.691 860.342 491.978 866.145 481.298C871.659 470.322 874.416 459.495 874.416 448.815Z" fill="#68b5dc" fill-rule="evenodd" opacity="1" stroke="none"/>
<path d="M837.417 422.562L837.417 518.677L845.687 513.782L845.687 417.667L837.417 422.562Z" fill="#7d5e37" fill-rule="evenodd" opacity="1" stroke="none"/>
<path d="M800.853 497.318L882.251 449.26L882.251 439.026L800.853 487.083L800.853 497.318Z" fill="#7d5e37" fill-rule="evenodd" opacity="1" stroke="none"/>
<path d="M381.244 19.8575C378.052 16.5943 374.279 15.2594 369.927 15.8527C364.703 16.7426 361.221 19.5608 359.48 24.3072L174.486 483.078C173.035 486.638 173.035 490.198 174.486 493.758C175.937 497.318 178.404 499.691 181.886 500.877L630.659 764.304L633.271 766.084L638.494 766.974C644.298 766.974 648.361 764.155 650.682 758.519L826.97 321.107L998.035 543.15C1000.36 546.117 1003.4 547.897 1007.18 548.49C1010.66 548.787 1013.85 547.748 1016.75 545.375C1019.65 543.299 1021.4 540.332 1021.98 536.476C1022.27 532.619 1021.25 529.208 1018.93 526.241L833.935 285.954C831.613 283.284 828.856 281.652 825.664 281.059L381.244 19.8575Z" fill="#448fb4" fill-rule="evenodd" opacity="1" stroke="none"/>
<path d="M821.747 281.059C816.814 281.652 813.331 284.322 811.3 289.069L625.871 747.84C624.42 751.399 624.42 754.959 625.871 758.519C627.322 762.079 629.789 764.6 633.271 766.084L638.494 766.974C644.298 766.974 648.361 764.155 650.682 758.519L826.97 321.107L998.035 543.15C1000.36 546.117 1003.4 547.897 1007.18 548.49C1010.66 548.787 1013.85 547.748 1016.75 545.375C1019.65 543.299 1021.4 540.332 1021.98 536.476C1022.27 532.619 1021.25 529.208 1018.93 526.241L833.935 285.954C830.743 281.801 826.68 280.169 821.747 281.059Z" fill="#347290" fill-rule="evenodd" opacity="1" stroke="none"/>
<path d="M11.2563 637.93L11.2563 797.232L381.244 1015.72L381.244 856.414L196.25 397.643L11.2563 637.93Z" fill="#f7c687" fill-rule="evenodd" opacity="1" stroke="none"/>
<path d="M595.837 888.897L595.837 729.596L381.244 856.414L381.244 1015.72L595.837 888.897Z" fill="#cea167" fill-rule="evenodd" opacity="1" stroke="none"/>
<path d="M110.065 600.107L110.065 855.524L246.307 936.065L246.307 662.404C246.307 655.878 243.841 651.28 238.907 648.61L133.135 586.313C128.201 583.05 123.123 583.05 117.9 586.313C112.676 589.28 110.065 593.878 110.065 600.107Z" fill="#a37c4a" fill-rule="evenodd" opacity="1" stroke="none"/>
<path d="M123.123 597.882L123.123 728.261L233.684 793.672L233.684 662.849L123.123 597.882Z" fill="#c4965b" fill-rule="evenodd" opacity="1" stroke="none"/>
<path d="M134.005 617.016L134.005 722.031L222.802 774.538L222.802 669.524L134.005 617.016Z" fill="#68b5dc" fill-rule="evenodd" opacity="1" stroke="none"/>
<path d="M172.745 626.806L172.745 757.629L184.062 764.304L184.062 633.926L172.745 626.806Z" fill="#c4965b" fill-rule="evenodd" opacity="1" stroke="none"/>
<path d="M123.123 656.175L123.123 669.969L233.684 734.935L233.684 721.586L123.123 656.175Z" fill="#c4965b" fill-rule="evenodd" opacity="1" stroke="none"/>
<path d="M194.509 384.293C191.027 384.887 188.125 386.518 185.803 389.188L0.809559 629.476C-1.51192 632.442-2.38248 635.854-1.80211 639.71C-1.51193 643.27 0.0840927 646.237 2.98596 648.61C5.88782 650.983 9.22497 652.021 12.9974 651.725C16.4796 651.131 19.3815 649.351 21.703 646.385L192.768 424.341L369.056 861.754C371.378 867.39 375.44 870.208 381.244 870.208C382.985 870.208 384.726 869.763 386.467 868.873C386.757 868.873 387.773 868.428 389.514 867.539L601.06 741.165C604.252 739.682 606.574 737.16 608.025 733.6C609.476 730.04 609.476 726.481 608.025 722.921L423.031 264.15C420.999 259.403 417.517 256.734 412.584 256.14C408.231 255.25 404.459 256.437 401.267 259.7L194.509 384.293Z" fill="#347290" fill-rule="evenodd" opacity="1" stroke="none"/>
<path d="M208.873 392.303C207.132 387.853 203.65 385.035 198.427 383.849C193.203 383.255 188.995 385.035 185.803 389.188L0.809559 629.476C-1.51192 632.442-2.38248 635.854-1.80211 639.71C-1.51193 643.27 0.0840927 646.237 2.98596 648.61C5.88782 650.983 9.22497 652.021 12.9974 651.725C16.4796 651.131 19.3815 649.351 21.703 646.385L192.768 424.341L369.056 861.754C371.378 867.39 375.44 870.208 381.244 870.208C382.985 870.208 384.726 869.763 386.467 868.873C389.95 867.687 392.416 865.313 393.867 861.754C395.318 858.194 395.318 854.634 393.867 851.074L208.873 392.303Z" fill="#448fb4" fill-rule="evenodd" opacity="1" stroke="none"/>
<path d="M350.339 440.806L350.339 449.705L389.95 548.045L394.738 556.055L394.738 467.059L350.339 440.806Z" fill="#f7c687" fill-rule="evenodd" opacity="1" stroke="none"/>
<path d="M439.571 440.806L394.738 467.059L394.738 556.055L439.571 529.801L439.571 440.806Z" fill="#cea167" fill-rule="evenodd" opacity="1" stroke="none"/>
<path d="M394.738 479.074L394.738 450.595L339.457 417.667L339.457 446.59L394.738 479.074Z" fill="#cea167" fill-rule="evenodd" opacity="1" stroke="none"/>
<path d="M450.453 446.59L450.453 417.667L394.738 450.595L394.738 479.074L450.453 446.59Z" fill="#9b743f" fill-rule="evenodd" opacity="1" stroke="none"/>
<path d="M394.738 450.595L450.453 417.667L394.738 385.183L339.457 417.667L394.738 450.595Z" fill="#f4d0a2" fill-rule="evenodd" opacity="1" stroke="none"/>
<path d="M394.738 438.581L429.995 417.667L394.738 397.198L359.915 417.667L394.738 438.581Z" fill="#9b743f" fill-rule="evenodd" opacity="1" stroke="none"/>
<path d="M394.738 397.198L394.738 438.581L429.995 417.667L394.738 397.198Z" fill="#cea167" fill-rule="evenodd" opacity="1" stroke="none"/>
</g>
</svg>
